<?xml version="1.0" encoding="utf-8" standalone="no"?>
<!DOCTYPE svg PUBLIC "-//W3C//DTD SVG 1.1//EN"
  "http://www.w3.org/Graphics/SVG/1.1/DTD/svg11.dtd">
<!-- Created with matplotlib (https://matplotlib.org/) -->
<svg height="288pt" version="1.1" viewBox="0 0 432 288" width="432pt" xmlns="http://www.w3.org/2000/svg" xmlns:xlink="http://www.w3.org/1999/xlink">
 <defs>
  <style type="text/css">
*{stroke-linecap:butt;stroke-linejoin:round;}
  </style>
 </defs>
 <g id="figure_1">
  <g id="patch_1">
   <path d="M 0 288 
L 432 288 
L 432 0 
L 0 0 
z
" style="fill:#ffffff;"/>
  </g>
  <g id="axes_1">
   <g id="patch_2">
    <path d="M 54 252 
L 388.8 252 
L 388.8 34.56 
L 54 34.56 
z
" style="fill:#ffffff;"/>
   </g>
   <g id="matplotlib.axis_1">
    <g id="xtick_1">
     <g id="line2d_1">
      <defs>
       <path d="M 0 0 
L 0 3.5 
" id="m8228afbde0" style="stroke:#000000;stroke-width:0.8;"/>
      </defs>
      <g>
       <use style="stroke:#000000;stroke-width:0.8;" x="54" xlink:href="#m8228afbde0" y="252"/>
      </g>
     </g>
     <g id="text_1">
      <!-- 2019-11 -->
      <defs>
       <path d="M 19.1875 8.296875 
L 53.609375 8.296875 
L 53.609375 0 
L 7.328125 0 
L 7.328125 8.296875 
Q 12.9375 14.109375 22.625 23.890625 
Q 32.328125 33.6875 34.8125 36.53125 
Q 39.546875 41.84375 41.421875 45.53125 
Q 43.3125 49.21875 43.3125 52.78125 
Q 43.3125 58.59375 39.234375 62.25 
Q 35.15625 65.921875 28.609375 65.921875 
Q 23.96875 65.921875 18.8125 64.3125 
Q 13.671875 62.703125 7.8125 59.421875 
L 7.8125 69.390625 
Q 13.765625 71.78125 18.9375 73 
Q 24.125 74.21875 28.421875 74.21875 
Q 39.75 74.21875 46.484375 68.546875 
Q 53.21875 62.890625 53.21875 53.421875 
Q 53.21875 48.921875 51.53125 44.890625 
Q 49.859375 40.875 45.40625 35.40625 
Q 44.1875 33.984375 37.640625 27.21875 
Q 31.109375 20.453125 19.1875 8.296875 
z
" id="DejaVuSans-50"/>
       <path d="M 31.78125 66.40625 
Q 24.171875 66.40625 20.328125 58.90625 
Q 16.5 51.421875 16.5 36.375 
Q 16.5 21.390625 20.328125 13.890625 
Q 24.171875 6.390625 31.78125 6.390625 
Q 39.453125 6.390625 43.28125 13.890625 
Q 47.125 21.390625 47.125 36.375 
Q 47.125 51.421875 43.28125 58.90625 
Q 39.453125 66.40625 31.78125 66.40625 
z
M 31.78125 74.21875 
Q 44.046875 74.21875 50.515625 64.515625 
Q 56.984375 54.828125 56.984375 36.375 
Q 56.984375 17.96875 50.515625 8.265625 
Q 44.046875 -1.421875 31.78125 -1.421875 
Q 19.53125 -1.421875 13.0625 8.265625 
Q 6.59375 17.96875 6.59375 36.375 
Q 6.59375 54.828125 13.0625 64.515625 
Q 19.53125 74.21875 31.78125 74.21875 
z
" id="DejaVuSans-48"/>
       <path d="M 12.40625 8.296875 
L 28.515625 8.296875 
L 28.515625 63.921875 
L 10.984375 60.40625 
L 10.984375 69.390625 
L 28.421875 72.90625 
L 38.28125 72.90625 
L 38.28125 8.296875 
L 54.390625 8.296875 
L 54.390625 0 
L 12.40625 0 
z
" id="DejaVuSans-49"/>
       <path d="M 10.984375 1.515625 
L 10.984375 10.5 
Q 14.703125 8.734375 18.5 7.8125 
Q 22.3125 6.890625 25.984375 6.890625 
Q 35.75 6.890625 40.890625 13.453125 
Q 46.046875 20.015625 46.78125 33.40625 
Q 43.953125 29.203125 39.59375 26.953125 
Q 35.25 24.703125 29.984375 24.703125 
Q 19.046875 24.703125 12.671875 31.3125 
Q 6.296875 37.9375 6.296875 49.421875 
Q 6.296875 60.640625 12.9375 67.421875 
Q 19.578125 74.21875 30.609375 74.21875 
Q 43.265625 74.21875 49.921875 64.515625 
Q 56.59375 54.828125 56.59375 36.375 
Q 56.59375 19.140625 48.40625 8.859375 
Q 40.234375 -1.421875 26.421875 -1.421875 
Q 22.703125 -1.421875 18.890625 -0.6875 
Q 15.09375 0.046875 10.984375 1.515625 
z
M 30.609375 32.421875 
Q 37.25 32.421875 41.125 36.953125 
Q 45.015625 41.5 45.015625 49.421875 
Q 45.015625 57.28125 41.125 61.84375 
Q 37.25 66.40625 30.609375 66.40625 
Q 23.96875 66.40625 20.09375 61.84375 
Q 16.21875 57.28125 16.21875 49.421875 
Q 16.21875 41.5 20.09375 36.953125 
Q 23.96875 32.421875 30.609375 32.421875 
z
" id="DejaVuSans-57"/>
       <path d="M 4.890625 31.390625 
L 31.203125 31.390625 
L 31.203125 23.390625 
L 4.890625 23.390625 
z
" id="DejaVuSans-45"/>
      </defs>
      <g transform="translate(33.108594 266.598437)scale(0.1 -0.1)">
       <use xlink:href="#DejaVuSans-50"/>
       <use x="63.623047" xlink:href="#DejaVuSans-48"/>
       <use x="127.246094" xlink:href="#DejaVuSans-49"/>
       <use x="190.869141" xlink:href="#DejaVuSans-57"/>
       <use x="254.492188" xlink:href="#DejaVuSans-45"/>
       <use x="290.576172" xlink:href="#DejaVuSans-49"/>
       <use x="354.199219" xlink:href="#DejaVuSans-49"/>
      </g>
     </g>
    </g>
    <g id="xtick_2">
     <g id="line2d_2">
      <g>
       <use style="stroke:#000000;stroke-width:0.8;" x="106.863158" xlink:href="#m8228afbde0" y="252"/>
      </g>
     </g>
     <g id="text_2">
      <!-- 2019-12 -->
      <g transform="translate(85.971752 266.598437)scale(0.1 -0.1)">
       <use xlink:href="#DejaVuSans-50"/>
       <use x="63.623047" xlink:href="#DejaVuSans-48"/>
       <use x="127.246094" xlink:href="#DejaVuSans-49"/>
       <use x="190.869141" xlink:href="#DejaVuSans-57"/>
       <use x="254.492188" xlink:href="#DejaVuSans-45"/>
       <use x="290.576172" xlink:href="#DejaVuSans-49"/>
       <use x="354.199219" xlink:href="#DejaVuSans-50"/>
      </g>
     </g>
    </g>
    <g id="xtick_3">
     <g id="line2d_3">
      <g>
       <use style="stroke:#000000;stroke-width:0.8;" x="161.488421" xlink:href="#m8228afbde0" y="252"/>
      </g>
     </g>
     <g id="text_3">
      <!-- 2020-01 -->
      <g transform="translate(140.597015 266.598437)scale(0.1 -0.1)">
       <use xlink:href="#DejaVuSans-50"/>
       <use x="63.623047" xlink:href="#DejaVuSans-48"/>
       <use x="127.246094" xlink:href="#DejaVuSans-50"/>
       <use x="190.869141" xlink:href="#DejaVuSans-48"/>
       <use x="254.492188" xlink:href="#DejaVuSans-45"/>
       <use x="290.576172" xlink:href="#DejaVuSans-48"/>
       <use x="354.199219" xlink:href="#DejaVuSans-49"/>
      </g>
     </g>
    </g>
    <g id="xtick_4">
     <g id="line2d_4">
      <g>
       <use style="stroke:#000000;stroke-width:0.8;" x="216.113684" xlink:href="#m8228afbde0" y="252"/>
      </g>
     </g>
     <g id="text_4">
      <!-- 2020-02 -->
      <g transform="translate(195.222278 266.598437)scale(0.1 -0.1)">
       <use xlink:href="#DejaVuSans-50"/>
       <use x="63.623047" xlink:href="#DejaVuSans-48"/>
       <use x="127.246094" xlink:href="#DejaVuSans-50"/>
       <use x="190.869141" xlink:href="#DejaVuSans-48"/>
       <use x="254.492188" xlink:href="#DejaVuSans-45"/>
       <use x="290.576172" xlink:href="#DejaVuSans-48"/>
       <use x="354.199219" xlink:href="#DejaVuSans-50"/>
      </g>
     </g>
    </g>
    <g id="xtick_5">
     <g id="line2d_5">
      <g>
       <use style="stroke:#000000;stroke-width:0.8;" x="267.214737" xlink:href="#m8228afbde0" y="252"/>
      </g>
     </g>
     <g id="text_5">
      <!-- 2020-03 -->
      <defs>
       <path d="M 40.578125 39.3125 
Q 47.65625 37.796875 51.625 33 
Q 55.609375 28.21875 55.609375 21.1875 
Q 55.609375 10.40625 48.1875 4.484375 
Q 40.765625 -1.421875 27.09375 -1.421875 
Q 22.515625 -1.421875 17.65625 -0.515625 
Q 12.796875 0.390625 7.625 2.203125 
L 7.625 11.71875 
Q 11.71875 9.328125 16.59375 8.109375 
Q 21.484375 6.890625 26.8125 6.890625 
Q 36.078125 6.890625 40.9375 10.546875 
Q 45.796875 14.203125 45.796875 21.1875 
Q 45.796875 27.640625 41.28125 31.265625 
Q 36.765625 34.90625 28.71875 34.90625 
L 20.21875 34.90625 
L 20.21875 43.015625 
L 29.109375 43.015625 
Q 36.375 43.015625 40.234375 45.921875 
Q 44.09375 48.828125 44.09375 54.296875 
Q 44.09375 59.90625 40.109375 62.90625 
Q 36.140625 65.921875 28.71875 65.921875 
Q 24.65625 65.921875 20.015625 65.03125 
Q 15.375 64.15625 9.8125 62.3125 
L 9.8125 71.09375 
Q 15.4375 72.65625 20.34375 73.4375 
Q 25.25 74.21875 29.59375 74.21875 
Q 40.828125 74.21875 47.359375 69.109375 
Q 53.90625 64.015625 53.90625 55.328125 
Q 53.90625 49.265625 50.4375 45.09375 
Q 46.96875 40.921875 40.578125 39.3125 
z
" id="DejaVuSans-51"/>
      </defs>
      <g transform="translate(246.323331 266.598437)scale(0.1 -0.1)">
       <use xlink:href="#DejaVuSans-50"/>
       <use x="63.623047" xlink:href="#DejaVuSans-48"/>
       <use x="127.246094" xlink:href="#DejaVuSans-50"/>
       <use x="190.869141" xlink:href="#DejaVuSans-48"/>
       <use x="254.492188" xlink:href="#DejaVuSans-45"/>
       <use x="290.576172" xlink:href="#DejaVuSans-48"/>
       <use x="354.199219" xlink:href="#DejaVuSans-51"/>
      </g>
     </g>
    </g>
    <g id="xtick_6">
     <g id="line2d_6">
      <g>
       <use style="stroke:#000000;stroke-width:0.8;" x="321.84" xlink:href="#m8228afbde0" y="252"/>
      </g>
     </g>
     <g id="text_6">
      <!-- 2020-04 -->
      <defs>
       <path d="M 37.796875 64.3125 
L 12.890625 25.390625 
L 37.796875 25.390625 
z
M 35.203125 72.90625 
L 47.609375 72.90625 
L 47.609375 25.390625 
L 58.015625 25.390625 
L 58.015625 17.1875 
L 47.609375 17.1875 
L 47.609375 0 
L 37.796875 0 
L 37.796875 17.1875 
L 4.890625 17.1875 
L 4.890625 26.703125 
z
" id="DejaVuSans-52"/>
      </defs>
      <g transform="translate(300.948594 266.598437)scale(0.1 -0.1)">
       <use xlink:href="#DejaVuSans-50"/>
       <use x="63.623047" xlink:href="#DejaVuSans-48"/>
       <use x="127.246094" xlink:href="#DejaVuSans-50"/>
       <use x="190.869141" xlink:href="#DejaVuSans-48"/>
       <use x="254.492188" xlink:href="#DejaVuSans-45"/>
       <use x="290.576172" xlink:href="#DejaVuSans-48"/>
       <use x="354.199219" xlink:href="#DejaVuSans-52"/>
      </g>
     </g>
    </g>
    <g id="xtick_7">
     <g id="line2d_7">
      <g>
       <use style="stroke:#000000;stroke-width:0.8;" x="374.703158" xlink:href="#m8228afbde0" y="252"/>
      </g>
     </g>
     <g id="text_7">
      <!-- 2020-05 -->
      <defs>
       <path d="M 10.796875 72.90625 
L 49.515625 72.90625 
L 49.515625 64.59375 
L 19.828125 64.59375 
L 19.828125 46.734375 
Q 21.96875 47.46875 24.109375 47.828125 
Q 26.265625 48.1875 28.421875 48.1875 
Q 40.625 48.1875 47.75 41.5 
Q 54.890625 34.8125 54.890625 23.390625 
Q 54.890625 11.625 47.5625 5.09375 
Q 40.234375 -1.421875 26.90625 -1.421875 
Q 22.3125 -1.421875 17.546875 -0.640625 
Q 12.796875 0.140625 7.71875 1.703125 
L 7.71875 11.625 
Q 12.109375 9.234375 16.796875 8.0625 
Q 21.484375 6.890625 26.703125 6.890625 
Q 35.15625 6.890625 40.078125 11.328125 
Q 45.015625 15.765625 45.015625 23.390625 
Q 45.015625 31 40.078125 35.4375 
Q 35.15625 39.890625 26.703125 39.890625 
Q 22.75 39.890625 18.8125 39.015625 
Q 14.890625 38.140625 10.796875 36.28125 
z
" id="DejaVuSans-53"/>
      </defs>
      <g transform="translate(353.811752 266.598437)scale(0.1 -0.1)">
       <use xlink:href="#DejaVuSans-50"/>
       <use x="63.623047" xlink:href="#DejaVuSans-48"/>
       <use x="127.246094" xlink:href="#DejaVuSans-50"/>
       <use x="190.869141" xlink:href="#DejaVuSans-48"/>
       <use x="254.492188" xlink:href="#DejaVuSans-45"/>
       <use x="290.576172" xlink:href="#DejaVuSans-48"/>
       <use x="354.199219" xlink:href="#DejaVuSans-53"/>
      </g>
     </g>
    </g>
    <g id="text_8">
     <!-- Date -->
     <defs>
      <path d="M 19.671875 64.796875 
L 19.671875 8.109375 
L 31.59375 8.109375 
Q 46.6875 8.109375 53.6875 14.9375 
Q 60.6875 21.78125 60.6875 36.53125 
Q 60.6875 51.171875 53.6875 57.984375 
Q 46.6875 64.796875 31.59375 64.796875 
z
M 9.8125 72.90625 
L 30.078125 72.90625 
Q 51.265625 72.90625 61.171875 64.09375 
Q 71.09375 55.28125 71.09375 36.53125 
Q 71.09375 17.671875 61.125 8.828125 
Q 51.171875 0 30.078125 0 
L 9.8125 0 
z
" id="DejaVuSans-68"/>
      <path d="M 34.28125 27.484375 
Q 23.390625 27.484375 19.1875 25 
Q 14.984375 22.515625 14.984375 16.5 
Q 14.984375 11.71875 18.140625 8.90625 
Q 21.296875 6.109375 26.703125 6.109375 
Q 34.1875 6.109375 38.703125 11.40625 
Q 43.21875 16.703125 43.21875 25.484375 
L 43.21875 27.484375 
z
M 52.203125 31.203125 
L 52.203125 0 
L 43.21875 0 
L 43.21875 8.296875 
Q 40.140625 3.328125 35.546875 0.953125 
Q 30.953125 -1.421875 24.3125 -1.421875 
Q 15.921875 -1.421875 10.953125 3.296875 
Q 6 8.015625 6 15.921875 
Q 6 25.140625 12.171875 29.828125 
Q 18.359375 34.515625 30.609375 34.515625 
L 43.21875 34.515625 
L 43.21875 35.40625 
Q 43.21875 41.609375 39.140625 45 
Q 35.0625 48.390625 27.6875 48.390625 
Q 23 48.390625 18.546875 47.265625 
Q 14.109375 46.140625 10.015625 43.890625 
L 10.015625 52.203125 
Q 14.9375 54.109375 19.578125 55.046875 
Q 24.21875 56 28.609375 56 
Q 40.484375 56 46.34375 49.84375 
Q 52.203125 43.703125 52.203125 31.203125 
z
" id="DejaVuSans-97"/>
      <path d="M 18.3125 70.21875 
L 18.3125 54.6875 
L 36.8125 54.6875 
L 36.8125 47.703125 
L 18.3125 47.703125 
L 18.3125 18.015625 
Q 18.3125 11.328125 20.140625 9.421875 
Q 21.96875 7.515625 27.59375 7.515625 
L 36.8125 7.515625 
L 36.8125 0 
L 27.59375 0 
Q 17.1875 0 13.234375 3.875 
Q 9.28125 7.765625 9.28125 18.015625 
L 9.28125 47.703125 
L 2.6875 47.703125 
L 2.6875 54.6875 
L 9.28125 54.6875 
L 9.28125 70.21875 
z
" id="DejaVuSans-116"/>
      <path d="M 56.203125 29.59375 
L 56.203125 25.203125 
L 14.890625 25.203125 
Q 15.484375 15.921875 20.484375 11.0625 
Q 25.484375 6.203125 34.421875 6.203125 
Q 39.59375 6.203125 44.453125 7.46875 
Q 49.3125 8.734375 54.109375 11.28125 
L 54.109375 2.78125 
Q 49.265625 0.734375 44.1875 -0.34375 
Q 39.109375 -1.421875 33.890625 -1.421875 
Q 20.796875 -1.421875 13.15625 6.1875 
Q 5.515625 13.8125 5.515625 26.8125 
Q 5.515625 40.234375 12.765625 48.109375 
Q 20.015625 56 32.328125 56 
Q 43.359375 56 49.78125 48.890625 
Q 56.203125 41.796875 56.203125 29.59375 
z
M 47.21875 32.234375 
Q 47.125 39.59375 43.09375 43.984375 
Q 39.0625 48.390625 32.421875 48.390625 
Q 24.90625 48.390625 20.390625 44.140625 
Q 15.875 39.890625 15.1875 32.171875 
z
" id="DejaVuSans-101"/>
     </defs>
     <g transform="translate(209.449219 280.276563)scale(0.1 -0.1)">
      <use xlink:href="#DejaVuSans-68"/>
      <use x="77.001953" xlink:href="#DejaVuSans-97"/>
      <use x="138.28125" xlink:href="#DejaVuSans-116"/>
      <use x="177.490234" xlink:href="#DejaVuSans-101"/>
     </g>
    </g>
   </g>
   <g id="matplotlib.axis_2">
    <g id="ytick_1">
     <g id="line2d_8">
      <defs>
       <path d="M 0 0 
L -3.5 0 
" id="m18c16a3551" style="stroke:#000000;stroke-width:0.8;"/>
      </defs>
      <g>
       <use style="stroke:#000000;stroke-width:0.8;" x="54" xlink:href="#m18c16a3551" y="242.775273"/>
      </g>
     </g>
     <g id="text_9">
      <!-- 0 -->
      <g transform="translate(40.6375 246.574491)scale(0.1 -0.1)">
       <use xlink:href="#DejaVuSans-48"/>
      </g>
     </g>
    </g>
    <g id="ytick_2">
     <g id="line2d_9">
      <g>
       <use style="stroke:#000000;stroke-width:0.8;" x="54" xlink:href="#m18c16a3551" y="209.829818"/>
      </g>
     </g>
     <g id="text_10">
      <!-- 50 -->
      <g transform="translate(34.275 213.629037)scale(0.1 -0.1)">
       <use xlink:href="#DejaVuSans-53"/>
       <use x="63.623047" xlink:href="#DejaVuSans-48"/>
      </g>
     </g>
    </g>
    <g id="ytick_3">
     <g id="line2d_10">
      <g>
       <use style="stroke:#000000;stroke-width:0.8;" x="54" xlink:href="#m18c16a3551" y="176.884364"/>
      </g>
     </g>
     <g id="text_11">
      <!-- 100 -->
      <g transform="translate(27.9125 180.683582)scale(0.1 -0.1)">
       <use xlink:href="#DejaVuSans-49"/>
       <use x="63.623047" xlink:href="#DejaVuSans-48"/>
       <use x="127.246094" xlink:href="#DejaVuSans-48"/>
      </g>
     </g>
    </g>
    <g id="ytick_4">
     <g id="line2d_11">
      <g>
       <use style="stroke:#000000;stroke-width:0.8;" x="54" xlink:href="#m18c16a3551" y="143.938909"/>
      </g>
     </g>
     <g id="text_12">
      <!-- 150 -->
      <g transform="translate(27.9125 147.738128)scale(0.1 -0.1)">
       <use xlink:href="#DejaVuSans-49"/>
       <use x="63.623047" xlink:href="#DejaVuSans-53"/>
       <use x="127.246094" xlink:href="#DejaVuSans-48"/>
      </g>
     </g>
    </g>
    <g id="ytick_5">
     <g id="line2d_12">
      <g>
       <use style="stroke:#000000;stroke-width:0.8;" x="54" xlink:href="#m18c16a3551" y="110.993455"/>
      </g>
     </g>
     <g id="text_13">
      <!-- 200 -->
      <g transform="translate(27.9125 114.792673)scale(0.1 -0.1)">
       <use xlink:href="#DejaVuSans-50"/>
       <use x="63.623047" xlink:href="#DejaVuSans-48"/>
       <use x="127.246094" xlink:href="#DejaVuSans-48"/>
      </g>
     </g>
    </g>
    <g id="ytick_6">
     <g id="line2d_13">
      <g>
       <use style="stroke:#000000;stroke-width:0.8;" x="54" xlink:href="#m18c16a3551" y="78.048"/>
      </g>
     </g>
     <g id="text_14">
      <!-- 250 -->
      <g transform="translate(27.9125 81.847219)scale(0.1 -0.1)">
       <use xlink:href="#DejaVuSans-50"/>
       <use x="63.623047" xlink:href="#DejaVuSans-53"/>
       <use x="127.246094" xlink:href="#DejaVuSans-48"/>
      </g>
     </g>
    </g>
    <g id="ytick_7">
     <g id="line2d_14">
      <g>
       <use style="stroke:#000000;stroke-width:0.8;" x="54" xlink:href="#m18c16a3551" y="45.102545"/>
      </g>
     </g>
     <g id="text_15">
      <!-- 300 -->
      <g transform="translate(27.9125 48.901764)scale(0.1 -0.1)">
       <use xlink:href="#DejaVuSans-51"/>
       <use x="63.623047" xlink:href="#DejaVuSans-48"/>
       <use x="127.246094" xlink:href="#DejaVuSans-48"/>
      </g>
     </g>
    </g>
    <g id="text_16">
     <!-- No. publications per day -->
     <defs>
      <path d="M 9.8125 72.90625 
L 23.09375 72.90625 
L 55.421875 11.921875 
L 55.421875 72.90625 
L 64.984375 72.90625 
L 64.984375 0 
L 51.703125 0 
L 19.390625 60.984375 
L 19.390625 0 
L 9.8125 0 
z
" id="DejaVuSans-78"/>
      <path d="M 30.609375 48.390625 
Q 23.390625 48.390625 19.1875 42.75 
Q 14.984375 37.109375 14.984375 27.296875 
Q 14.984375 17.484375 19.15625 11.84375 
Q 23.34375 6.203125 30.609375 6.203125 
Q 37.796875 6.203125 41.984375 11.859375 
Q 46.1875 17.53125 46.1875 27.296875 
Q 46.1875 37.015625 41.984375 42.703125 
Q 37.796875 48.390625 30.609375 48.390625 
z
M 30.609375 56 
Q 42.328125 56 49.015625 48.375 
Q 55.71875 40.765625 55.71875 27.296875 
Q 55.71875 13.875 49.015625 6.21875 
Q 42.328125 -1.421875 30.609375 -1.421875 
Q 18.84375 -1.421875 12.171875 6.21875 
Q 5.515625 13.875 5.515625 27.296875 
Q 5.515625 40.765625 12.171875 48.375 
Q 18.84375 56 30.609375 56 
z
" id="DejaVuSans-111"/>
      <path d="M 10.6875 12.40625 
L 21 12.40625 
L 21 0 
L 10.6875 0 
z
" id="DejaVuSans-46"/>
      <path id="DejaVuSans-32"/>
      <path d="M 18.109375 8.203125 
L 18.109375 -20.796875 
L 9.078125 -20.796875 
L 9.078125 54.6875 
L 18.109375 54.6875 
L 18.109375 46.390625 
Q 20.953125 51.265625 25.265625 53.625 
Q 29.59375 56 35.59375 56 
Q 45.5625 56 51.78125 48.09375 
Q 58.015625 40.1875 58.015625 27.296875 
Q 58.015625 14.40625 51.78125 6.484375 
Q 45.5625 -1.421875 35.59375 -1.421875 
Q 29.59375 -1.421875 25.265625 0.953125 
Q 20.953125 3.328125 18.109375 8.203125 
z
M 48.6875 27.296875 
Q 48.6875 37.203125 44.609375 42.84375 
Q 40.53125 48.484375 33.40625 48.484375 
Q 26.265625 48.484375 22.1875 42.84375 
Q 18.109375 37.203125 18.109375 27.296875 
Q 18.109375 17.390625 22.1875 11.75 
Q 26.265625 6.109375 33.40625 6.109375 
Q 40.53125 6.109375 44.609375 11.75 
Q 48.6875 17.390625 48.6875 27.296875 
z
" id="DejaVuSans-112"/>
      <path d="M 8.5 21.578125 
L 8.5 54.6875 
L 17.484375 54.6875 
L 17.484375 21.921875 
Q 17.484375 14.15625 20.5 10.265625 
Q 23.53125 6.390625 29.59375 6.390625 
Q 36.859375 6.390625 41.078125 11.03125 
Q 45.3125 15.671875 45.3125 23.6875 
L 45.3125 54.6875 
L 54.296875 54.6875 
L 54.296875 0 
L 45.3125 0 
L 45.3125 8.40625 
Q 42.046875 3.421875 37.71875 1 
Q 33.40625 -1.421875 27.6875 -1.421875 
Q 18.265625 -1.421875 13.375 4.4375 
Q 8.5 10.296875 8.5 21.578125 
z
M 31.109375 56 
z
" id="DejaVuSans-117"/>
      <path d="M 48.6875 27.296875 
Q 48.6875 37.203125 44.609375 42.84375 
Q 40.53125 48.484375 33.40625 48.484375 
Q 26.265625 48.484375 22.1875 42.84375 
Q 18.109375 37.203125 18.109375 27.296875 
Q 18.109375 17.390625 22.1875 11.75 
Q 26.265625 6.109375 33.40625 6.109375 
Q 40.53125 6.109375 44.609375 11.75 
Q 48.6875 17.390625 48.6875 27.296875 
z
M 18.109375 46.390625 
Q 20.953125 51.265625 25.265625 53.625 
Q 29.59375 56 35.59375 56 
Q 45.5625 56 51.78125 48.09375 
Q 58.015625 40.1875 58.015625 27.296875 
Q 58.015625 14.40625 51.78125 6.484375 
Q 45.5625 -1.421875 35.59375 -1.421875 
Q 29.59375 -1.421875 25.265625 0.953125 
Q 20.953125 3.328125 18.109375 8.203125 
L 18.109375 0 
L 9.078125 0 
L 9.078125 75.984375 
L 18.109375 75.984375 
z
" id="DejaVuSans-98"/>
      <path d="M 9.421875 75.984375 
L 18.40625 75.984375 
L 18.40625 0 
L 9.421875 0 
z
" id="DejaVuSans-108"/>
      <path d="M 9.421875 54.6875 
L 18.40625 54.6875 
L 18.40625 0 
L 9.421875 0 
z
M 9.421875 75.984375 
L 18.40625 75.984375 
L 18.40625 64.59375 
L 9.421875 64.59375 
z
" id="DejaVuSans-105"/>
      <path d="M 48.78125 52.59375 
L 48.78125 44.1875 
Q 44.96875 46.296875 41.140625 47.34375 
Q 37.3125 48.390625 33.40625 48.390625 
Q 24.65625 48.390625 19.8125 42.84375 
Q 14.984375 37.3125 14.984375 27.296875 
Q 14.984375 17.28125 19.8125 11.734375 
Q 24.65625 6.203125 33.40625 6.203125 
Q 37.3125 6.203125 41.140625 7.25 
Q 44.96875 8.296875 48.78125 10.40625 
L 48.78125 2.09375 
Q 45.015625 0.34375 40.984375 -0.53125 
Q 36.96875 -1.421875 32.421875 -1.421875 
Q 20.0625 -1.421875 12.78125 6.34375 
Q 5.515625 14.109375 5.515625 27.296875 
Q 5.515625 40.671875 12.859375 48.328125 
Q 20.21875 56 33.015625 56 
Q 37.15625 56 41.109375 55.140625 
Q 45.0625 54.296875 48.78125 52.59375 
z
" id="DejaVuSans-99"/>
      <path d="M 54.890625 33.015625 
L 54.890625 0 
L 45.90625 0 
L 45.90625 32.71875 
Q 45.90625 40.484375 42.875 44.328125 
Q 39.84375 48.1875 33.796875 48.1875 
Q 26.515625 48.1875 22.3125 43.546875 
Q 18.109375 38.921875 18.109375 30.90625 
L 18.109375 0 
L 9.078125 0 
L 9.078125 54.6875 
L 18.109375 54.6875 
L 18.109375 46.1875 
Q 21.34375 51.125 25.703125 53.5625 
Q 30.078125 56 35.796875 56 
Q 45.21875 56 50.046875 50.171875 
Q 54.890625 44.34375 54.890625 33.015625 
z
" id="DejaVuSans-110"/>
      <path d="M 44.28125 53.078125 
L 44.28125 44.578125 
Q 40.484375 46.53125 36.375 47.5 
Q 32.28125 48.484375 27.875 48.484375 
Q 21.1875 48.484375 17.84375 46.4375 
Q 14.5 44.390625 14.5 40.28125 
Q 14.5 37.15625 16.890625 35.375 
Q 19.28125 33.59375 26.515625 31.984375 
L 29.59375 31.296875 
Q 39.15625 29.25 43.1875 25.515625 
Q 47.21875 21.78125 47.21875 15.09375 
Q 47.21875 7.46875 41.1875 3.015625 
Q 35.15625 -1.421875 24.609375 -1.421875 
Q 20.21875 -1.421875 15.453125 -0.5625 
Q 10.6875 0.296875 5.421875 2 
L 5.421875 11.28125 
Q 10.40625 8.6875 15.234375 7.390625 
Q 20.0625 6.109375 24.8125 6.109375 
Q 31.15625 6.109375 34.5625 8.28125 
Q 37.984375 10.453125 37.984375 14.40625 
Q 37.984375 18.0625 35.515625 20.015625 
Q 33.0625 21.96875 24.703125 23.78125 
L 21.578125 24.515625 
Q 13.234375 26.265625 9.515625 29.90625 
Q 5.8125 33.546875 5.8125 39.890625 
Q 5.8125 47.609375 11.28125 51.796875 
Q 16.75 56 26.8125 56 
Q 31.78125 56 36.171875 55.265625 
Q 40.578125 54.546875 44.28125 53.078125 
z
" id="DejaVuSans-115"/>
      <path d="M 41.109375 46.296875 
Q 39.59375 47.171875 37.8125 47.578125 
Q 36.03125 48 33.890625 48 
Q 26.265625 48 22.1875 43.046875 
Q 18.109375 38.09375 18.109375 28.8125 
L 18.109375 0 
L 9.078125 0 
L 9.078125 54.6875 
L 18.109375 54.6875 
L 18.109375 46.1875 
Q 20.953125 51.171875 25.484375 53.578125 
Q 30.03125 56 36.53125 56 
Q 37.453125 56 38.578125 55.875 
Q 39.703125 55.765625 41.0625 55.515625 
z
" id="DejaVuSans-114"/>
      <path d="M 45.40625 46.390625 
L 45.40625 75.984375 
L 54.390625 75.984375 
L 54.390625 0 
L 45.40625 0 
L 45.40625 8.203125 
Q 42.578125 3.328125 38.25 0.953125 
Q 33.9375 -1.421875 27.875 -1.421875 
Q 17.96875 -1.421875 11.734375 6.484375 
Q 5.515625 14.40625 5.515625 27.296875 
Q 5.515625 40.1875 11.734375 48.09375 
Q 17.96875 56 27.875 56 
Q 33.9375 56 38.25 53.625 
Q 42.578125 51.265625 45.40625 46.390625 
z
M 14.796875 27.296875 
Q 14.796875 17.390625 18.875 11.75 
Q 22.953125 6.109375 30.078125 6.109375 
Q 37.203125 6.109375 41.296875 11.75 
Q 45.40625 17.390625 45.40625 27.296875 
Q 45.40625 37.203125 41.296875 42.84375 
Q 37.203125 48.484375 30.078125 48.484375 
Q 22.953125 48.484375 18.875 42.84375 
Q 14.796875 37.203125 14.796875 27.296875 
z
" id="DejaVuSans-100"/>
      <path d="M 32.171875 -5.078125 
Q 28.375 -14.84375 24.75 -17.8125 
Q 21.140625 -20.796875 15.09375 -20.796875 
L 7.90625 -20.796875 
L 7.90625 -13.28125 
L 13.1875 -13.28125 
Q 16.890625 -13.28125 18.9375 -11.515625 
Q 21 -9.765625 23.484375 -3.21875 
L 25.09375 0.875 
L 2.984375 54.6875 
L 12.5 54.6875 
L 29.59375 11.921875 
L 46.6875 54.6875 
L 56.203125 54.6875 
z
" id="DejaVuSans-121"/>
     </defs>
     <g transform="translate(21.832812 204.23)rotate(-90)scale(0.1 -0.1)">
      <use xlink:href="#DejaVuSans-78"/>
      <use x="74.804688" xlink:href="#DejaVuSans-111"/>
      <use x="135.970703" xlink:href="#DejaVuSans-46"/>
      <use x="167.757812" xlink:href="#DejaVuSans-32"/>
      <use x="199.544922" xlink:href="#DejaVuSans-112"/>
      <use x="263.021484" xlink:href="#DejaVuSans-117"/>
      <use x="326.400391" xlink:href="#DejaVuSans-98"/>
      <use x="389.876953" xlink:href="#DejaVuSans-108"/>
      <use x="417.660156" xlink:href="#DejaVuSans-105"/>
      <use x="445.443359" xlink:href="#DejaVuSans-99"/>
      <use x="500.423828" xlink:href="#DejaVuSans-97"/>
      <use x="561.703125" xlink:href="#DejaVuSans-116"/>
      <use x="600.912109" xlink:href="#DejaVuSans-105"/>
      <use x="628.695312" xlink:href="#DejaVuSans-111"/>
      <use x="689.876953" xlink:href="#DejaVuSans-110"/>
      <use x="753.255859" xlink:href="#DejaVuSans-115"/>
      <use x="805.355469" xlink:href="#DejaVuSans-32"/>
      <use x="837.142578" xlink:href="#DejaVuSans-112"/>
      <use x="900.619141" xlink:href="#DejaVuSans-101"/>
      <use x="962.142578" xlink:href="#DejaVuSans-114"/>
      <use x="1003.255859" xlink:href="#DejaVuSans-32"/>
      <use x="1035.042969" xlink:href="#DejaVuSans-100"/>
      <use x="1098.519531" xlink:href="#DejaVuSans-97"/>
      <use x="1159.798828" xlink:href="#DejaVuSans-121"/>
     </g>
    </g>
   </g>
   <g id="line2d_15">
    <defs>
     <path d="M 0 3 
C 0.795609 3 1.55874 2.683901 2.12132 2.12132 
C 2.683901 1.55874 3 0.795609 3 0 
C 3 -0.795609 2.683901 -1.55874 2.12132 -2.12132 
C 1.55874 -2.683901 0.795609 -3 0 -3 
C -0.795609 -3 -1.55874 -2.683901 -2.12132 -2.12132 
C -2.683901 -1.55874 -3 -0.795609 -3 0 
C -3 0.795609 -2.683901 1.55874 -2.12132 2.12132 
C -1.55874 2.683901 -0.795609 3 0 3 
z
" id="maf8b965adb" style="stroke:#008000;"/>
    </defs>
    <g clip-path="url(#p203792a430)">
     <use style="fill:#008000;stroke:#008000;" x="293.646316" xlink:href="#maf8b965adb" y="216.418909"/>
     <use style="fill:#008000;stroke:#008000;" x="216.113684" xlink:href="#maf8b965adb" y="185.450182"/>
     <use style="fill:#008000;stroke:#008000;" x="321.84" xlink:href="#maf8b965adb" y="44.443636"/>
     <use style="fill:#008000;stroke:#008000;" x="267.214737" xlink:href="#maf8b965adb" y="96.497455"/>
     <use style="fill:#008000;stroke:#008000;" x="161.488421" xlink:href="#maf8b965adb" y="201.922909"/>
     <use style="fill:#008000;stroke:#008000;" x="284.835789" xlink:href="#maf8b965adb" y="215.101091"/>
     <use style="fill:#008000;stroke:#008000;" x="290.122105" xlink:href="#maf8b965adb" y="223.666909"/>
     <use style="fill:#008000;stroke:#008000;" x="313.029474" xlink:href="#maf8b965adb" y="182.155636"/>
     <use style="fill:#008000;stroke:#008000;" x="54" xlink:href="#maf8b965adb" y="241.457455"/>
     <use style="fill:#008000;stroke:#008000;" x="374.703158" xlink:href="#maf8b965adb" y="218.395636"/>
     <use style="fill:#008000;stroke:#008000;" x="318.315789" xlink:href="#maf8b965adb" y="183.473455"/>
     <use style="fill:#008000;stroke:#008000;" x="288.36" xlink:href="#maf8b965adb" y="209.170909"/>
     <use style="fill:#008000;stroke:#008000;" x="320.077895" xlink:href="#maf8b965adb" y="166.341818"/>
     <use style="fill:#008000;stroke:#008000;" x="277.787368" xlink:href="#maf8b965adb" y="234.868364"/>
     <use style="fill:#008000;stroke:#008000;" x="337.698947" xlink:href="#maf8b965adb" y="240.139636"/>
     <use style="fill:#008000;stroke:#008000;" x="302.456842" xlink:href="#maf8b965adb" y="222.349091"/>
     <use style="fill:#008000;stroke:#008000;" x="298.932632" xlink:href="#maf8b965adb" y="211.806545"/>
     <use style="fill:#008000;stroke:#008000;" x="330.650526" xlink:href="#maf8b965adb" y="204.558545"/>
     <use style="fill:#008000;stroke:#008000;" x="263.690526" xlink:href="#maf8b965adb" y="222.349091"/>
     <use style="fill:#008000;stroke:#008000;" x="300.694737" xlink:href="#maf8b965adb" y="193.357091"/>
     <use style="fill:#008000;stroke:#008000;" x="360.606316" xlink:href="#maf8b965adb" y="242.116364"/>
     <use style="fill:#008000;stroke:#008000;" x="295.408421" xlink:href="#maf8b965adb" y="212.465455"/>
     <use style="fill:#008000;stroke:#008000;" x="297.170526" xlink:href="#maf8b965adb" y="219.054545"/>
     <use style="fill:#008000;stroke:#008000;" x="305.981053" xlink:href="#maf8b965adb" y="203.240727"/>
     <use style="fill:#008000;stroke:#008000;" x="309.505263" xlink:href="#maf8b965adb" y="201.264"/>
     <use style="fill:#008000;stroke:#008000;" x="311.267368" xlink:href="#maf8b965adb" y="194.016"/>
     <use style="fill:#008000;stroke:#008000;" x="228.448421" xlink:href="#maf8b965adb" y="238.162909"/>
     <use style="fill:#008000;stroke:#008000;" x="265.452632" xlink:href="#maf8b965adb" y="226.302545"/>
     <use style="fill:#008000;stroke:#008000;" x="325.364211" xlink:href="#maf8b965adb" y="167.000727"/>
     <use style="fill:#008000;stroke:#008000;" x="249.593684" xlink:href="#maf8b965adb" y="231.573818"/>
     <use style="fill:#008000;stroke:#008000;" x="291.884211" xlink:href="#maf8b965adb" y="232.891636"/>
     <use style="fill:#008000;stroke:#008000;" x="240.783158" xlink:href="#maf8b965adb" y="232.232727"/>
     <use style="fill:#008000;stroke:#008000;" x="276.025263" xlink:href="#maf8b965adb" y="230.256"/>
     <use style="fill:#008000;stroke:#008000;" x="274.263158" xlink:href="#maf8b965adb" y="225.643636"/>
     <use style="fill:#008000;stroke:#008000;" x="323.602105" xlink:href="#maf8b965adb" y="176.225455"/>
     <use style="fill:#008000;stroke:#008000;" x="281.311579" xlink:href="#maf8b965adb" y="230.256"/>
     <use style="fill:#008000;stroke:#008000;" x="251.355789" xlink:href="#maf8b965adb" y="232.891636"/>
     <use style="fill:#008000;stroke:#008000;" x="258.404211" xlink:href="#maf8b965adb" y="235.527273"/>
     <use style="fill:#008000;stroke:#008000;" x="253.117895" xlink:href="#maf8b965adb" y="232.891636"/>
     <use style="fill:#008000;stroke:#008000;" x="307.743158" xlink:href="#maf8b965adb" y="207.194182"/>
     <use style="fill:#008000;stroke:#008000;" x="239.021053" xlink:href="#maf8b965adb" y="235.527273"/>
     <use style="fill:#008000;stroke:#008000;" x="226.686316" xlink:href="#maf8b965adb" y="237.504"/>
     <use style="fill:#008000;stroke:#008000;" x="346.509474" xlink:href="#maf8b965adb" y="239.480727"/>
     <use style="fill:#008000;stroke:#008000;" x="261.928421" xlink:href="#maf8b965adb" y="227.620364"/>
     <use style="fill:#008000;stroke:#008000;" x="314.791579" xlink:href="#maf8b965adb" y="215.76"/>
     <use style="fill:#008000;stroke:#008000;" x="272.501053" xlink:href="#maf8b965adb" y="226.961455"/>
     <use style="fill:#008000;stroke:#008000;" x="286.597895" xlink:href="#maf8b965adb" y="209.170909"/>
     <use style="fill:#008000;stroke:#008000;" x="332.412632" xlink:href="#maf8b965adb" y="219.713455"/>
     <use style="fill:#008000;stroke:#008000;" x="283.073684" xlink:href="#maf8b965adb" y="228.279273"/>
     <use style="fill:#008000;stroke:#008000;" x="237.258947" xlink:href="#maf8b965adb" y="240.798545"/>
     <use style="fill:#008000;stroke:#008000;" x="327.126316" xlink:href="#maf8b965adb" y="228.279273"/>
     <use style="fill:#008000;stroke:#008000;" x="316.553684" xlink:href="#maf8b965adb" y="231.573818"/>
     <use style="fill:#008000;stroke:#008000;" x="270.738947" xlink:href="#maf8b965adb" y="223.008"/>
     <use style="fill:#008000;stroke:#008000;" x="256.642105" xlink:href="#maf8b965adb" y="231.573818"/>
     <use style="fill:#008000;stroke:#008000;" x="260.166316" xlink:href="#maf8b965adb" y="232.232727"/>
     <use style="fill:#008000;stroke:#008000;" x="247.831579" xlink:href="#maf8b965adb" y="236.186182"/>
     <use style="fill:#008000;stroke:#008000;" x="214.351579" xlink:href="#maf8b965adb" y="239.480727"/>
     <use style="fill:#008000;stroke:#008000;" x="328.888421" xlink:href="#maf8b965adb" y="238.821818"/>
     <use style="fill:#008000;stroke:#008000;" x="416.993684" xlink:href="#maf8b965adb" y="240.139636"/>
     <use style="fill:#008000;stroke:#008000;" x="457.522105" xlink:href="#maf8b965adb" y="240.139636"/>
     <use style="fill:#008000;stroke:#008000;" x="235.496842" xlink:href="#maf8b965adb" y="238.821818"/>
     <use style="fill:#008000;stroke:#008000;" x="268.976842" xlink:href="#maf8b965adb" y="230.256"/>
     <use style="fill:#008000;stroke:#008000;" x="482.191579" xlink:href="#maf8b965adb" y="242.116364"/>
     <use style="fill:#008000;stroke:#008000;" x="244.307368" xlink:href="#maf8b965adb" y="238.821818"/>
     <use style="fill:#008000;stroke:#008000;" x="402.896842" xlink:href="#maf8b965adb" y="241.457455"/>
     <use style="fill:#008000;stroke:#008000;" x="279.549474" xlink:href="#maf8b965adb" y="236.845091"/>
     <use style="fill:#008000;stroke:#008000;" x="231.972632" xlink:href="#maf8b965adb" y="241.457455"/>
     <use style="fill:#008000;stroke:#008000;" x="350.033684" xlink:href="#maf8b965adb" y="242.116364"/>
     <use style="fill:#008000;stroke:#008000;" x="344.747368" xlink:href="#maf8b965adb" y="242.116364"/>
     <use style="fill:#008000;stroke:#008000;" x="304.218947" xlink:href="#maf8b965adb" y="241.457455"/>
     <use style="fill:#008000;stroke:#008000;" x="246.069474" xlink:href="#maf8b965adb" y="240.798545"/>
     <use style="fill:#008000;stroke:#008000;" x="242.545263" xlink:href="#maf8b965adb" y="241.457455"/>
     <use style="fill:#008000;stroke:#008000;" x="751.793684" xlink:href="#maf8b965adb" y="238.162909"/>
     <use style="fill:#008000;stroke:#008000;" x="224.924211" xlink:href="#maf8b965adb" y="241.457455"/>
     <use style="fill:#008000;stroke:#008000;" x="219.637895" xlink:href="#maf8b965adb" y="242.116364"/>
     <use style="fill:#008000;stroke:#008000;" x="223.162105" xlink:href="#maf8b965adb" y="237.504"/>
     <use style="fill:#008000;stroke:#008000;" x="233.734737" xlink:href="#maf8b965adb" y="238.821818"/>
     <use style="fill:#008000;stroke:#008000;" x="221.4" xlink:href="#maf8b965adb" y="240.798545"/>
     <use style="fill:#008000;stroke:#008000;" x="202.016842" xlink:href="#maf8b965adb" y="242.116364"/>
     <use style="fill:#008000;stroke:#008000;" x="210.827368" xlink:href="#maf8b965adb" y="242.116364"/>
     <use style="fill:#008000;stroke:#008000;" x="217.875789" xlink:href="#maf8b965adb" y="241.457455"/>
     <use style="fill:#008000;stroke:#008000;" x="106.863158" xlink:href="#maf8b965adb" y="242.116364"/>
     <use style="fill:#008000;stroke:#008000;" x="209.065263" xlink:href="#maf8b965adb" y="242.116364"/>
     <use style="fill:#008000;stroke:#008000;" x="379.989474" xlink:href="#maf8b965adb" y="242.116364"/>
    </g>
   </g>
   <g id="line2d_16">
    <path clip-path="url(#p203792a430)" d="M 335.936842 252 
L 335.936842 34.56 
" style="fill:none;stroke:#ff0000;stroke-linecap:square;stroke-width:1.5;"/>
   </g>
   <g id="line2d_17">
    <path clip-path="url(#p203792a430)" d="M 54 44.443636 
L 388.8 44.443636 
" style="fill:none;stroke:#0000ff;stroke-linecap:square;stroke-width:1.5;"/>
   </g>
   <g id="patch_3">
    <path d="M 54 252 
L 54 34.56 
" style="fill:none;stroke:#000000;stroke-linecap:square;stroke-linejoin:miter;stroke-width:0.8;"/>
   </g>
   <g id="patch_4">
    <path d="M 388.8 252 
L 388.8 34.56 
" style="fill:none;stroke:#000000;stroke-linecap:square;stroke-linejoin:miter;stroke-width:0.8;"/>
   </g>
   <g id="patch_5">
    <path d="M 54 252 
L 388.8 252 
" style="fill:none;stroke:#000000;stroke-linecap:square;stroke-linejoin:miter;stroke-width:0.8;"/>
   </g>
   <g id="patch_6">
    <path d="M 54 34.56 
L 388.8 34.56 
" style="fill:none;stroke:#000000;stroke-linecap:square;stroke-linejoin:miter;stroke-width:0.8;"/>
   </g>
   <g id="text_17">
    <!-- COVID-19 Publications per Day -->
    <defs>
     <path d="M 64.40625 67.28125 
L 64.40625 56.890625 
Q 59.421875 61.53125 53.78125 63.8125 
Q 48.140625 66.109375 41.796875 66.109375 
Q 29.296875 66.109375 22.65625 58.46875 
Q 16.015625 50.828125 16.015625 36.375 
Q 16.015625 21.96875 22.65625 14.328125 
Q 29.296875 6.6875 41.796875 6.6875 
Q 48.140625 6.6875 53.78125 8.984375 
Q 59.421875 11.28125 64.40625 15.921875 
L 64.40625 5.609375 
Q 59.234375 2.09375 53.4375 0.328125 
Q 47.65625 -1.421875 41.21875 -1.421875 
Q 24.65625 -1.421875 15.125 8.703125 
Q 5.609375 18.84375 5.609375 36.375 
Q 5.609375 53.953125 15.125 64.078125 
Q 24.65625 74.21875 41.21875 74.21875 
Q 47.75 74.21875 53.53125 72.484375 
Q 59.328125 70.75 64.40625 67.28125 
z
" id="DejaVuSans-67"/>
     <path d="M 39.40625 66.21875 
Q 28.65625 66.21875 22.328125 58.203125 
Q 16.015625 50.203125 16.015625 36.375 
Q 16.015625 22.609375 22.328125 14.59375 
Q 28.65625 6.59375 39.40625 6.59375 
Q 50.140625 6.59375 56.421875 14.59375 
Q 62.703125 22.609375 62.703125 36.375 
Q 62.703125 50.203125 56.421875 58.203125 
Q 50.140625 66.21875 39.40625 66.21875 
z
M 39.40625 74.21875 
Q 54.734375 74.21875 63.90625 63.9375 
Q 73.09375 53.65625 73.09375 36.375 
Q 73.09375 19.140625 63.90625 8.859375 
Q 54.734375 -1.421875 39.40625 -1.421875 
Q 24.03125 -1.421875 14.8125 8.828125 
Q 5.609375 19.09375 5.609375 36.375 
Q 5.609375 53.65625 14.8125 63.9375 
Q 24.03125 74.21875 39.40625 74.21875 
z
" id="DejaVuSans-79"/>
     <path d="M 28.609375 0 
L 0.78125 72.90625 
L 11.078125 72.90625 
L 34.1875 11.53125 
L 57.328125 72.90625 
L 67.578125 72.90625 
L 39.796875 0 
z
" id="DejaVuSans-86"/>
     <path d="M 9.8125 72.90625 
L 19.671875 72.90625 
L 19.671875 0 
L 9.8125 0 
z
" id="DejaVuSans-73"/>
     <path d="M 19.671875 64.796875 
L 19.671875 37.40625 
L 32.078125 37.40625 
Q 38.96875 37.40625 42.71875 40.96875 
Q 46.484375 44.53125 46.484375 51.125 
Q 46.484375 57.671875 42.71875 61.234375 
Q 38.96875 64.796875 32.078125 64.796875 
z
M 9.8125 72.90625 
L 32.078125 72.90625 
Q 44.34375 72.90625 50.609375 67.359375 
Q 56.890625 61.8125 56.890625 51.125 
Q 56.890625 40.328125 50.609375 34.8125 
Q 44.34375 29.296875 32.078125 29.296875 
L 19.671875 29.296875 
L 19.671875 0 
L 9.8125 0 
z
" id="DejaVuSans-80"/>
    </defs>
    <g transform="translate(128.50125 28.56)scale(0.12 -0.12)">
     <use xlink:href="#DejaVuSans-67"/>
     <use x="69.824219" xlink:href="#DejaVuSans-79"/>
     <use x="148.519531" xlink:href="#DejaVuSans-86"/>
     <use x="216.927734" xlink:href="#DejaVuSans-73"/>
     <use x="246.419922" xlink:href="#DejaVuSans-68"/>
     <use x="323.421875" xlink:href="#DejaVuSans-45"/>
     <use x="359.505859" xlink:href="#DejaVuSans-49"/>
     <use x="423.128906" xlink:href="#DejaVuSans-57"/>
     <use x="486.751953" xlink:href="#DejaVuSans-32"/>
     <use x="518.539062" xlink:href="#DejaVuSans-80"/>
     <use x="578.826172" xlink:href="#DejaVuSans-117"/>
     <use x="642.205078" xlink:href="#DejaVuSans-98"/>
     <use x="705.681641" xlink:href="#DejaVuSans-108"/>
     <use x="733.464844" xlink:href="#DejaVuSans-105"/>
     <use x="761.248047" xlink:href="#DejaVuSans-99"/>
     <use x="816.228516" xlink:href="#DejaVuSans-97"/>
     <use x="877.507812" xlink:href="#DejaVuSans-116"/>
     <use x="916.716797" xlink:href="#DejaVuSans-105"/>
     <use x="944.5" xlink:href="#DejaVuSans-111"/>
     <use x="1005.681641" xlink:href="#DejaVuSans-110"/>
     <use x="1069.060547" xlink:href="#DejaVuSans-115"/>
     <use x="1121.160156" xlink:href="#DejaVuSans-32"/>
     <use x="1152.947266" xlink:href="#DejaVuSans-112"/>
     <use x="1216.423828" xlink:href="#DejaVuSans-101"/>
     <use x="1277.947266" xlink:href="#DejaVuSans-114"/>
     <use x="1319.060547" xlink:href="#DejaVuSans-32"/>
     <use x="1350.847656" xlink:href="#DejaVuSans-68"/>
     <use x="1427.849609" xlink:href="#DejaVuSans-97"/>
     <use x="1489.128906" xlink:href="#DejaVuSans-121"/>
    </g>
   </g>
   <g id="legend_1">
    <g id="patch_7">
     <path d="M 61 159.458125 
L 151.115625 159.458125 
Q 153.115625 159.458125 153.115625 157.458125 
L 153.115625 129.101875 
Q 153.115625 127.101875 151.115625 127.101875 
L 61 127.101875 
Q 59 127.101875 59 129.101875 
L 59 157.458125 
Q 59 159.458125 61 159.458125 
z
" style="fill:#ffffff;opacity:0.8;stroke:#cccccc;stroke-linejoin:miter;"/>
    </g>
    <g id="line2d_18">
     <path d="M 63 135.200312 
L 83 135.200312 
" style="fill:none;stroke:#ff0000;stroke-linecap:square;stroke-width:1.5;"/>
    </g>
    <g id="line2d_19"/>
    <g id="text_18">
     <!-- 2020-04-09 -->
     <g transform="translate(91 138.700312)scale(0.1 -0.1)">
      <use xlink:href="#DejaVuSans-50"/>
      <use x="63.623047" xlink:href="#DejaVuSans-48"/>
      <use x="127.246094" xlink:href="#DejaVuSans-50"/>
      <use x="190.869141" xlink:href="#DejaVuSans-48"/>
      <use x="254.492188" xlink:href="#DejaVuSans-45"/>
      <use x="290.576172" xlink:href="#DejaVuSans-48"/>
      <use x="354.199219" xlink:href="#DejaVuSans-52"/>
      <use x="417.822266" xlink:href="#DejaVuSans-45"/>
      <use x="453.90625" xlink:href="#DejaVuSans-48"/>
      <use x="517.529297" xlink:href="#DejaVuSans-57"/>
     </g>
    </g>
    <g id="line2d_20">
     <path d="M 63 149.878437 
L 83 149.878437 
" style="fill:none;stroke:#0000ff;stroke-linecap:square;stroke-width:1.5;"/>
    </g>
    <g id="line2d_21"/>
    <g id="text_19">
     <!-- 301 -->
     <g transform="translate(91 153.378437)scale(0.1 -0.1)">
      <use xlink:href="#DejaVuSans-51"/>
      <use x="63.623047" xlink:href="#DejaVuSans-48"/>
      <use x="127.246094" xlink:href="#DejaVuSans-49"/>
     </g>
    </g>
   </g>
  </g>
 </g>
 <defs>
  <clipPath id="p203792a430">
   <rect height="217.44" width="334.8" x="54" y="34.56"/>
  </clipPath>
 </defs>
</svg>
