<?xml version="1.0" encoding="utf-8" standalone="no"?>
<!DOCTYPE svg PUBLIC "-//W3C//DTD SVG 1.1//EN"
  "http://www.w3.org/Graphics/SVG/1.1/DTD/svg11.dtd">
<!-- Created with matplotlib (https://matplotlib.org/) -->
<svg height="288pt" version="1.1" viewBox="0 0 432 288" width="432pt" xmlns="http://www.w3.org/2000/svg" xmlns:xlink="http://www.w3.org/1999/xlink">
 <defs>
  <style type="text/css">
*{stroke-linecap:butt;stroke-linejoin:round;}
  </style>
 </defs>
 <g id="figure_1">
  <g id="patch_1">
   <path d="M 0 288 
L 432 288 
L 432 0 
L 0 0 
z
" style="fill:#ffffff;"/>
  </g>
  <g id="axes_1">
   <g id="patch_2">
    <path d="M 54 252 
L 388.8 252 
L 388.8 34.56 
L 54 34.56 
z
" style="fill:#ffffff;"/>
   </g>
   <g id="matplotlib.axis_1">
    <g id="xtick_1">
     <g id="line2d_1">
      <defs>
       <path d="M 0 0 
L 0 3.5 
" id="mb66da844d8" style="stroke:#000000;stroke-width:0.8;"/>
      </defs>
      <g>
       <use style="stroke:#000000;stroke-width:0.8;" x="54" xlink:href="#mb66da844d8" y="252"/>
      </g>
     </g>
     <g id="text_1">
      <!-- 2019-11 -->
      <defs>
       <path d="M 19.1875 8.296875 
L 53.609375 8.296875 
L 53.609375 0 
L 7.328125 0 
L 7.328125 8.296875 
Q 12.9375 14.109375 22.625 23.890625 
Q 32.328125 33.6875 34.8125 36.53125 
Q 39.546875 41.84375 41.421875 45.53125 
Q 43.3125 49.21875 43.3125 52.78125 
Q 43.3125 58.59375 39.234375 62.25 
Q 35.15625 65.921875 28.609375 65.921875 
Q 23.96875 65.921875 18.8125 64.3125 
Q 13.671875 62.703125 7.8125 59.421875 
L 7.8125 69.390625 
Q 13.765625 71.78125 18.9375 73 
Q 24.125 74.21875 28.421875 74.21875 
Q 39.75 74.21875 46.484375 68.546875 
Q 53.21875 62.890625 53.21875 53.421875 
Q 53.21875 48.921875 51.53125 44.890625 
Q 49.859375 40.875 45.40625 35.40625 
Q 44.1875 33.984375 37.640625 27.21875 
Q 31.109375 20.453125 19.1875 8.296875 
z
" id="DejaVuSans-50"/>
       <path d="M 31.78125 66.40625 
Q 24.171875 66.40625 20.328125 58.90625 
Q 16.5 51.421875 16.5 36.375 
Q 16.5 21.390625 20.328125 13.890625 
Q 24.171875 6.390625 31.78125 6.390625 
Q 39.453125 6.390625 43.28125 13.890625 
Q 47.125 21.390625 47.125 36.375 
Q 47.125 51.421875 43.28125 58.90625 
Q 39.453125 66.40625 31.78125 66.40625 
z
M 31.78125 74.21875 
Q 44.046875 74.21875 50.515625 64.515625 
Q 56.984375 54.828125 56.984375 36.375 
Q 56.984375 17.96875 50.515625 8.265625 
Q 44.046875 -1.421875 31.78125 -1.421875 
Q 19.53125 -1.421875 13.0625 8.265625 
Q 6.59375 17.96875 6.59375 36.375 
Q 6.59375 54.828125 13.0625 64.515625 
Q 19.53125 74.21875 31.78125 74.21875 
z
" id="DejaVuSans-48"/>
       <path d="M 12.40625 8.296875 
L 28.515625 8.296875 
L 28.515625 63.921875 
L 10.984375 60.40625 
L 10.984375 69.390625 
L 28.421875 72.90625 
L 38.28125 72.90625 
L 38.28125 8.296875 
L 54.390625 8.296875 
L 54.390625 0 
L 12.40625 0 
z
" id="DejaVuSans-49"/>
       <path d="M 10.984375 1.515625 
L 10.984375 10.5 
Q 14.703125 8.734375 18.5 7.8125 
Q 22.3125 6.890625 25.984375 6.890625 
Q 35.75 6.890625 40.890625 13.453125 
Q 46.046875 20.015625 46.78125 33.40625 
Q 43.953125 29.203125 39.59375 26.953125 
Q 35.25 24.703125 29.984375 24.703125 
Q 19.046875 24.703125 12.671875 31.3125 
Q 6.296875 37.9375 6.296875 49.421875 
Q 6.296875 60.640625 12.9375 67.421875 
Q 19.578125 74.21875 30.609375 74.21875 
Q 43.265625 74.21875 49.921875 64.515625 
Q 56.59375 54.828125 56.59375 36.375 
Q 56.59375 19.140625 48.40625 8.859375 
Q 40.234375 -1.421875 26.421875 -1.421875 
Q 22.703125 -1.421875 18.890625 -0.6875 
Q 15.09375 0.046875 10.984375 1.515625 
z
M 30.609375 32.421875 
Q 37.25 32.421875 41.125 36.953125 
Q 45.015625 41.5 45.015625 49.421875 
Q 45.015625 57.28125 41.125 61.84375 
Q 37.25 66.40625 30.609375 66.40625 
Q 23.96875 66.40625 20.09375 61.84375 
Q 16.21875 57.28125 16.21875 49.421875 
Q 16.21875 41.5 20.09375 36.953125 
Q 23.96875 32.421875 30.609375 32.421875 
z
" id="DejaVuSans-57"/>
       <path d="M 4.890625 31.390625 
L 31.203125 31.390625 
L 31.203125 23.390625 
L 4.890625 23.390625 
z
" id="DejaVuSans-45"/>
      </defs>
      <g transform="translate(33.108594 266.598437)scale(0.1 -0.1)">
       <use xlink:href="#DejaVuSans-50"/>
       <use x="63.623047" xlink:href="#DejaVuSans-48"/>
       <use x="127.246094" xlink:href="#DejaVuSans-49"/>
       <use x="190.869141" xlink:href="#DejaVuSans-57"/>
       <use x="254.492188" xlink:href="#DejaVuSans-45"/>
       <use x="290.576172" xlink:href="#DejaVuSans-49"/>
       <use x="354.199219" xlink:href="#DejaVuSans-49"/>
      </g>
     </g>
    </g>
    <g id="xtick_2">
     <g id="line2d_2">
      <g>
       <use style="stroke:#000000;stroke-width:0.8;" x="107.425532" xlink:href="#mb66da844d8" y="252"/>
      </g>
     </g>
     <g id="text_2">
      <!-- 2019-12 -->
      <g transform="translate(86.534126 266.598437)scale(0.1 -0.1)">
       <use xlink:href="#DejaVuSans-50"/>
       <use x="63.623047" xlink:href="#DejaVuSans-48"/>
       <use x="127.246094" xlink:href="#DejaVuSans-49"/>
       <use x="190.869141" xlink:href="#DejaVuSans-57"/>
       <use x="254.492188" xlink:href="#DejaVuSans-45"/>
       <use x="290.576172" xlink:href="#DejaVuSans-49"/>
       <use x="354.199219" xlink:href="#DejaVuSans-50"/>
      </g>
     </g>
    </g>
    <g id="xtick_3">
     <g id="line2d_3">
      <g>
       <use style="stroke:#000000;stroke-width:0.8;" x="162.631915" xlink:href="#mb66da844d8" y="252"/>
      </g>
     </g>
     <g id="text_3">
      <!-- 2020-01 -->
      <g transform="translate(141.740509 266.598437)scale(0.1 -0.1)">
       <use xlink:href="#DejaVuSans-50"/>
       <use x="63.623047" xlink:href="#DejaVuSans-48"/>
       <use x="127.246094" xlink:href="#DejaVuSans-50"/>
       <use x="190.869141" xlink:href="#DejaVuSans-48"/>
       <use x="254.492188" xlink:href="#DejaVuSans-45"/>
       <use x="290.576172" xlink:href="#DejaVuSans-48"/>
       <use x="354.199219" xlink:href="#DejaVuSans-49"/>
      </g>
     </g>
    </g>
    <g id="xtick_4">
     <g id="line2d_4">
      <g>
       <use style="stroke:#000000;stroke-width:0.8;" x="217.838298" xlink:href="#mb66da844d8" y="252"/>
      </g>
     </g>
     <g id="text_4">
      <!-- 2020-02 -->
      <g transform="translate(196.946892 266.598437)scale(0.1 -0.1)">
       <use xlink:href="#DejaVuSans-50"/>
       <use x="63.623047" xlink:href="#DejaVuSans-48"/>
       <use x="127.246094" xlink:href="#DejaVuSans-50"/>
       <use x="190.869141" xlink:href="#DejaVuSans-48"/>
       <use x="254.492188" xlink:href="#DejaVuSans-45"/>
       <use x="290.576172" xlink:href="#DejaVuSans-48"/>
       <use x="354.199219" xlink:href="#DejaVuSans-50"/>
      </g>
     </g>
    </g>
    <g id="xtick_5">
     <g id="line2d_5">
      <g>
       <use style="stroke:#000000;stroke-width:0.8;" x="269.482979" xlink:href="#mb66da844d8" y="252"/>
      </g>
     </g>
     <g id="text_5">
      <!-- 2020-03 -->
      <defs>
       <path d="M 40.578125 39.3125 
Q 47.65625 37.796875 51.625 33 
Q 55.609375 28.21875 55.609375 21.1875 
Q 55.609375 10.40625 48.1875 4.484375 
Q 40.765625 -1.421875 27.09375 -1.421875 
Q 22.515625 -1.421875 17.65625 -0.515625 
Q 12.796875 0.390625 7.625 2.203125 
L 7.625 11.71875 
Q 11.71875 9.328125 16.59375 8.109375 
Q 21.484375 6.890625 26.8125 6.890625 
Q 36.078125 6.890625 40.9375 10.546875 
Q 45.796875 14.203125 45.796875 21.1875 
Q 45.796875 27.640625 41.28125 31.265625 
Q 36.765625 34.90625 28.71875 34.90625 
L 20.21875 34.90625 
L 20.21875 43.015625 
L 29.109375 43.015625 
Q 36.375 43.015625 40.234375 45.921875 
Q 44.09375 48.828125 44.09375 54.296875 
Q 44.09375 59.90625 40.109375 62.90625 
Q 36.140625 65.921875 28.71875 65.921875 
Q 24.65625 65.921875 20.015625 65.03125 
Q 15.375 64.15625 9.8125 62.3125 
L 9.8125 71.09375 
Q 15.4375 72.65625 20.34375 73.4375 
Q 25.25 74.21875 29.59375 74.21875 
Q 40.828125 74.21875 47.359375 69.109375 
Q 53.90625 64.015625 53.90625 55.328125 
Q 53.90625 49.265625 50.4375 45.09375 
Q 46.96875 40.921875 40.578125 39.3125 
z
" id="DejaVuSans-51"/>
      </defs>
      <g transform="translate(248.591572 266.598437)scale(0.1 -0.1)">
       <use xlink:href="#DejaVuSans-50"/>
       <use x="63.623047" xlink:href="#DejaVuSans-48"/>
       <use x="127.246094" xlink:href="#DejaVuSans-50"/>
       <use x="190.869141" xlink:href="#DejaVuSans-48"/>
       <use x="254.492188" xlink:href="#DejaVuSans-45"/>
       <use x="290.576172" xlink:href="#DejaVuSans-48"/>
       <use x="354.199219" xlink:href="#DejaVuSans-51"/>
      </g>
     </g>
    </g>
    <g id="xtick_6">
     <g id="line2d_6">
      <g>
       <use style="stroke:#000000;stroke-width:0.8;" x="324.689362" xlink:href="#mb66da844d8" y="252"/>
      </g>
     </g>
     <g id="text_6">
      <!-- 2020-04 -->
      <defs>
       <path d="M 37.796875 64.3125 
L 12.890625 25.390625 
L 37.796875 25.390625 
z
M 35.203125 72.90625 
L 47.609375 72.90625 
L 47.609375 25.390625 
L 58.015625 25.390625 
L 58.015625 17.1875 
L 47.609375 17.1875 
L 47.609375 0 
L 37.796875 0 
L 37.796875 17.1875 
L 4.890625 17.1875 
L 4.890625 26.703125 
z
" id="DejaVuSans-52"/>
      </defs>
      <g transform="translate(303.797955 266.598437)scale(0.1 -0.1)">
       <use xlink:href="#DejaVuSans-50"/>
       <use x="63.623047" xlink:href="#DejaVuSans-48"/>
       <use x="127.246094" xlink:href="#DejaVuSans-50"/>
       <use x="190.869141" xlink:href="#DejaVuSans-48"/>
       <use x="254.492188" xlink:href="#DejaVuSans-45"/>
       <use x="290.576172" xlink:href="#DejaVuSans-48"/>
       <use x="354.199219" xlink:href="#DejaVuSans-52"/>
      </g>
     </g>
    </g>
    <g id="xtick_7">
     <g id="line2d_7">
      <g>
       <use style="stroke:#000000;stroke-width:0.8;" x="378.114894" xlink:href="#mb66da844d8" y="252"/>
      </g>
     </g>
     <g id="text_7">
      <!-- 2020-05 -->
      <defs>
       <path d="M 10.796875 72.90625 
L 49.515625 72.90625 
L 49.515625 64.59375 
L 19.828125 64.59375 
L 19.828125 46.734375 
Q 21.96875 47.46875 24.109375 47.828125 
Q 26.265625 48.1875 28.421875 48.1875 
Q 40.625 48.1875 47.75 41.5 
Q 54.890625 34.8125 54.890625 23.390625 
Q 54.890625 11.625 47.5625 5.09375 
Q 40.234375 -1.421875 26.90625 -1.421875 
Q 22.3125 -1.421875 17.546875 -0.640625 
Q 12.796875 0.140625 7.71875 1.703125 
L 7.71875 11.625 
Q 12.109375 9.234375 16.796875 8.0625 
Q 21.484375 6.890625 26.703125 6.890625 
Q 35.15625 6.890625 40.078125 11.328125 
Q 45.015625 15.765625 45.015625 23.390625 
Q 45.015625 31 40.078125 35.4375 
Q 35.15625 39.890625 26.703125 39.890625 
Q 22.75 39.890625 18.8125 39.015625 
Q 14.890625 38.140625 10.796875 36.28125 
z
" id="DejaVuSans-53"/>
      </defs>
      <g transform="translate(357.223487 266.598437)scale(0.1 -0.1)">
       <use xlink:href="#DejaVuSans-50"/>
       <use x="63.623047" xlink:href="#DejaVuSans-48"/>
       <use x="127.246094" xlink:href="#DejaVuSans-50"/>
       <use x="190.869141" xlink:href="#DejaVuSans-48"/>
       <use x="254.492188" xlink:href="#DejaVuSans-45"/>
       <use x="290.576172" xlink:href="#DejaVuSans-48"/>
       <use x="354.199219" xlink:href="#DejaVuSans-53"/>
      </g>
     </g>
    </g>
    <g id="text_8">
     <!-- Date -->
     <defs>
      <path d="M 19.671875 64.796875 
L 19.671875 8.109375 
L 31.59375 8.109375 
Q 46.6875 8.109375 53.6875 14.9375 
Q 60.6875 21.78125 60.6875 36.53125 
Q 60.6875 51.171875 53.6875 57.984375 
Q 46.6875 64.796875 31.59375 64.796875 
z
M 9.8125 72.90625 
L 30.078125 72.90625 
Q 51.265625 72.90625 61.171875 64.09375 
Q 71.09375 55.28125 71.09375 36.53125 
Q 71.09375 17.671875 61.125 8.828125 
Q 51.171875 0 30.078125 0 
L 9.8125 0 
z
" id="DejaVuSans-68"/>
      <path d="M 34.28125 27.484375 
Q 23.390625 27.484375 19.1875 25 
Q 14.984375 22.515625 14.984375 16.5 
Q 14.984375 11.71875 18.140625 8.90625 
Q 21.296875 6.109375 26.703125 6.109375 
Q 34.1875 6.109375 38.703125 11.40625 
Q 43.21875 16.703125 43.21875 25.484375 
L 43.21875 27.484375 
z
M 52.203125 31.203125 
L 52.203125 0 
L 43.21875 0 
L 43.21875 8.296875 
Q 40.140625 3.328125 35.546875 0.953125 
Q 30.953125 -1.421875 24.3125 -1.421875 
Q 15.921875 -1.421875 10.953125 3.296875 
Q 6 8.015625 6 15.921875 
Q 6 25.140625 12.171875 29.828125 
Q 18.359375 34.515625 30.609375 34.515625 
L 43.21875 34.515625 
L 43.21875 35.40625 
Q 43.21875 41.609375 39.140625 45 
Q 35.0625 48.390625 27.6875 48.390625 
Q 23 48.390625 18.546875 47.265625 
Q 14.109375 46.140625 10.015625 43.890625 
L 10.015625 52.203125 
Q 14.9375 54.109375 19.578125 55.046875 
Q 24.21875 56 28.609375 56 
Q 40.484375 56 46.34375 49.84375 
Q 52.203125 43.703125 52.203125 31.203125 
z
" id="DejaVuSans-97"/>
      <path d="M 18.3125 70.21875 
L 18.3125 54.6875 
L 36.8125 54.6875 
L 36.8125 47.703125 
L 18.3125 47.703125 
L 18.3125 18.015625 
Q 18.3125 11.328125 20.140625 9.421875 
Q 21.96875 7.515625 27.59375 7.515625 
L 36.8125 7.515625 
L 36.8125 0 
L 27.59375 0 
Q 17.1875 0 13.234375 3.875 
Q 9.28125 7.765625 9.28125 18.015625 
L 9.28125 47.703125 
L 2.6875 47.703125 
L 2.6875 54.6875 
L 9.28125 54.6875 
L 9.28125 70.21875 
z
" id="DejaVuSans-116"/>
      <path d="M 56.203125 29.59375 
L 56.203125 25.203125 
L 14.890625 25.203125 
Q 15.484375 15.921875 20.484375 11.0625 
Q 25.484375 6.203125 34.421875 6.203125 
Q 39.59375 6.203125 44.453125 7.46875 
Q 49.3125 8.734375 54.109375 11.28125 
L 54.109375 2.78125 
Q 49.265625 0.734375 44.1875 -0.34375 
Q 39.109375 -1.421875 33.890625 -1.421875 
Q 20.796875 -1.421875 13.15625 6.1875 
Q 5.515625 13.8125 5.515625 26.8125 
Q 5.515625 40.234375 12.765625 48.109375 
Q 20.015625 56 32.328125 56 
Q 43.359375 56 49.78125 48.890625 
Q 56.203125 41.796875 56.203125 29.59375 
z
M 47.21875 32.234375 
Q 47.125 39.59375 43.09375 43.984375 
Q 39.0625 48.390625 32.421875 48.390625 
Q 24.90625 48.390625 20.390625 44.140625 
Q 15.875 39.890625 15.1875 32.171875 
z
" id="DejaVuSans-101"/>
     </defs>
     <g transform="translate(209.449219 280.276563)scale(0.1 -0.1)">
      <use xlink:href="#DejaVuSans-68"/>
      <use x="77.001953" xlink:href="#DejaVuSans-97"/>
      <use x="138.28125" xlink:href="#DejaVuSans-116"/>
      <use x="177.490234" xlink:href="#DejaVuSans-101"/>
     </g>
    </g>
   </g>
   <g id="matplotlib.axis_2">
    <g id="ytick_1">
     <g id="line2d_8">
      <defs>
       <path d="M 0 0 
L -3.5 0 
" id="m3fc60ff4cb" style="stroke:#000000;stroke-width:0.8;"/>
      </defs>
      <g>
       <use style="stroke:#000000;stroke-width:0.8;" x="54" xlink:href="#m3fc60ff4cb" y="242.296558"/>
      </g>
     </g>
     <g id="text_9">
      <!-- 0 -->
      <g transform="translate(40.6375 246.095776)scale(0.1 -0.1)">
       <use xlink:href="#DejaVuSans-48"/>
      </g>
     </g>
    </g>
    <g id="ytick_2">
     <g id="line2d_9">
      <g>
       <use style="stroke:#000000;stroke-width:0.8;" x="54" xlink:href="#m3fc60ff4cb" y="197.248078"/>
      </g>
     </g>
     <g id="text_10">
      <!-- 500 -->
      <g transform="translate(27.9125 201.047297)scale(0.1 -0.1)">
       <use xlink:href="#DejaVuSans-53"/>
       <use x="63.623047" xlink:href="#DejaVuSans-48"/>
       <use x="127.246094" xlink:href="#DejaVuSans-48"/>
      </g>
     </g>
    </g>
    <g id="ytick_3">
     <g id="line2d_10">
      <g>
       <use style="stroke:#000000;stroke-width:0.8;" x="54" xlink:href="#m3fc60ff4cb" y="152.199599"/>
      </g>
     </g>
     <g id="text_11">
      <!-- 1000 -->
      <g transform="translate(21.55 155.998818)scale(0.1 -0.1)">
       <use xlink:href="#DejaVuSans-49"/>
       <use x="63.623047" xlink:href="#DejaVuSans-48"/>
       <use x="127.246094" xlink:href="#DejaVuSans-48"/>
       <use x="190.869141" xlink:href="#DejaVuSans-48"/>
      </g>
     </g>
    </g>
    <g id="ytick_4">
     <g id="line2d_11">
      <g>
       <use style="stroke:#000000;stroke-width:0.8;" x="54" xlink:href="#m3fc60ff4cb" y="107.15112"/>
      </g>
     </g>
     <g id="text_12">
      <!-- 1500 -->
      <g transform="translate(21.55 110.950338)scale(0.1 -0.1)">
       <use xlink:href="#DejaVuSans-49"/>
       <use x="63.623047" xlink:href="#DejaVuSans-53"/>
       <use x="127.246094" xlink:href="#DejaVuSans-48"/>
       <use x="190.869141" xlink:href="#DejaVuSans-48"/>
      </g>
     </g>
    </g>
    <g id="ytick_5">
     <g id="line2d_12">
      <g>
       <use style="stroke:#000000;stroke-width:0.8;" x="54" xlink:href="#m3fc60ff4cb" y="62.10264"/>
      </g>
     </g>
     <g id="text_13">
      <!-- 2000 -->
      <g transform="translate(21.55 65.901859)scale(0.1 -0.1)">
       <use xlink:href="#DejaVuSans-50"/>
       <use x="63.623047" xlink:href="#DejaVuSans-48"/>
       <use x="127.246094" xlink:href="#DejaVuSans-48"/>
       <use x="190.869141" xlink:href="#DejaVuSans-48"/>
      </g>
     </g>
    </g>
    <g id="text_14">
     <!-- Total publications -->
     <defs>
      <path d="M -0.296875 72.90625 
L 61.375 72.90625 
L 61.375 64.59375 
L 35.5 64.59375 
L 35.5 0 
L 25.59375 0 
L 25.59375 64.59375 
L -0.296875 64.59375 
z
" id="DejaVuSans-84"/>
      <path d="M 30.609375 48.390625 
Q 23.390625 48.390625 19.1875 42.75 
Q 14.984375 37.109375 14.984375 27.296875 
Q 14.984375 17.484375 19.15625 11.84375 
Q 23.34375 6.203125 30.609375 6.203125 
Q 37.796875 6.203125 41.984375 11.859375 
Q 46.1875 17.53125 46.1875 27.296875 
Q 46.1875 37.015625 41.984375 42.703125 
Q 37.796875 48.390625 30.609375 48.390625 
z
M 30.609375 56 
Q 42.328125 56 49.015625 48.375 
Q 55.71875 40.765625 55.71875 27.296875 
Q 55.71875 13.875 49.015625 6.21875 
Q 42.328125 -1.421875 30.609375 -1.421875 
Q 18.84375 -1.421875 12.171875 6.21875 
Q 5.515625 13.875 5.515625 27.296875 
Q 5.515625 40.765625 12.171875 48.375 
Q 18.84375 56 30.609375 56 
z
" id="DejaVuSans-111"/>
      <path d="M 9.421875 75.984375 
L 18.40625 75.984375 
L 18.40625 0 
L 9.421875 0 
z
" id="DejaVuSans-108"/>
      <path id="DejaVuSans-32"/>
      <path d="M 18.109375 8.203125 
L 18.109375 -20.796875 
L 9.078125 -20.796875 
L 9.078125 54.6875 
L 18.109375 54.6875 
L 18.109375 46.390625 
Q 20.953125 51.265625 25.265625 53.625 
Q 29.59375 56 35.59375 56 
Q 45.5625 56 51.78125 48.09375 
Q 58.015625 40.1875 58.015625 27.296875 
Q 58.015625 14.40625 51.78125 6.484375 
Q 45.5625 -1.421875 35.59375 -1.421875 
Q 29.59375 -1.421875 25.265625 0.953125 
Q 20.953125 3.328125 18.109375 8.203125 
z
M 48.6875 27.296875 
Q 48.6875 37.203125 44.609375 42.84375 
Q 40.53125 48.484375 33.40625 48.484375 
Q 26.265625 48.484375 22.1875 42.84375 
Q 18.109375 37.203125 18.109375 27.296875 
Q 18.109375 17.390625 22.1875 11.75 
Q 26.265625 6.109375 33.40625 6.109375 
Q 40.53125 6.109375 44.609375 11.75 
Q 48.6875 17.390625 48.6875 27.296875 
z
" id="DejaVuSans-112"/>
      <path d="M 8.5 21.578125 
L 8.5 54.6875 
L 17.484375 54.6875 
L 17.484375 21.921875 
Q 17.484375 14.15625 20.5 10.265625 
Q 23.53125 6.390625 29.59375 6.390625 
Q 36.859375 6.390625 41.078125 11.03125 
Q 45.3125 15.671875 45.3125 23.6875 
L 45.3125 54.6875 
L 54.296875 54.6875 
L 54.296875 0 
L 45.3125 0 
L 45.3125 8.40625 
Q 42.046875 3.421875 37.71875 1 
Q 33.40625 -1.421875 27.6875 -1.421875 
Q 18.265625 -1.421875 13.375 4.4375 
Q 8.5 10.296875 8.5 21.578125 
z
M 31.109375 56 
z
" id="DejaVuSans-117"/>
      <path d="M 48.6875 27.296875 
Q 48.6875 37.203125 44.609375 42.84375 
Q 40.53125 48.484375 33.40625 48.484375 
Q 26.265625 48.484375 22.1875 42.84375 
Q 18.109375 37.203125 18.109375 27.296875 
Q 18.109375 17.390625 22.1875 11.75 
Q 26.265625 6.109375 33.40625 6.109375 
Q 40.53125 6.109375 44.609375 11.75 
Q 48.6875 17.390625 48.6875 27.296875 
z
M 18.109375 46.390625 
Q 20.953125 51.265625 25.265625 53.625 
Q 29.59375 56 35.59375 56 
Q 45.5625 56 51.78125 48.09375 
Q 58.015625 40.1875 58.015625 27.296875 
Q 58.015625 14.40625 51.78125 6.484375 
Q 45.5625 -1.421875 35.59375 -1.421875 
Q 29.59375 -1.421875 25.265625 0.953125 
Q 20.953125 3.328125 18.109375 8.203125 
L 18.109375 0 
L 9.078125 0 
L 9.078125 75.984375 
L 18.109375 75.984375 
z
" id="DejaVuSans-98"/>
      <path d="M 9.421875 54.6875 
L 18.40625 54.6875 
L 18.40625 0 
L 9.421875 0 
z
M 9.421875 75.984375 
L 18.40625 75.984375 
L 18.40625 64.59375 
L 9.421875 64.59375 
z
" id="DejaVuSans-105"/>
      <path d="M 48.78125 52.59375 
L 48.78125 44.1875 
Q 44.96875 46.296875 41.140625 47.34375 
Q 37.3125 48.390625 33.40625 48.390625 
Q 24.65625 48.390625 19.8125 42.84375 
Q 14.984375 37.3125 14.984375 27.296875 
Q 14.984375 17.28125 19.8125 11.734375 
Q 24.65625 6.203125 33.40625 6.203125 
Q 37.3125 6.203125 41.140625 7.25 
Q 44.96875 8.296875 48.78125 10.40625 
L 48.78125 2.09375 
Q 45.015625 0.34375 40.984375 -0.53125 
Q 36.96875 -1.421875 32.421875 -1.421875 
Q 20.0625 -1.421875 12.78125 6.34375 
Q 5.515625 14.109375 5.515625 27.296875 
Q 5.515625 40.671875 12.859375 48.328125 
Q 20.21875 56 33.015625 56 
Q 37.15625 56 41.109375 55.140625 
Q 45.0625 54.296875 48.78125 52.59375 
z
" id="DejaVuSans-99"/>
      <path d="M 54.890625 33.015625 
L 54.890625 0 
L 45.90625 0 
L 45.90625 32.71875 
Q 45.90625 40.484375 42.875 44.328125 
Q 39.84375 48.1875 33.796875 48.1875 
Q 26.515625 48.1875 22.3125 43.546875 
Q 18.109375 38.921875 18.109375 30.90625 
L 18.109375 0 
L 9.078125 0 
L 9.078125 54.6875 
L 18.109375 54.6875 
L 18.109375 46.1875 
Q 21.34375 51.125 25.703125 53.5625 
Q 30.078125 56 35.796875 56 
Q 45.21875 56 50.046875 50.171875 
Q 54.890625 44.34375 54.890625 33.015625 
z
" id="DejaVuSans-110"/>
      <path d="M 44.28125 53.078125 
L 44.28125 44.578125 
Q 40.484375 46.53125 36.375 47.5 
Q 32.28125 48.484375 27.875 48.484375 
Q 21.1875 48.484375 17.84375 46.4375 
Q 14.5 44.390625 14.5 40.28125 
Q 14.5 37.15625 16.890625 35.375 
Q 19.28125 33.59375 26.515625 31.984375 
L 29.59375 31.296875 
Q 39.15625 29.25 43.1875 25.515625 
Q 47.21875 21.78125 47.21875 15.09375 
Q 47.21875 7.46875 41.1875 3.015625 
Q 35.15625 -1.421875 24.609375 -1.421875 
Q 20.21875 -1.421875 15.453125 -0.5625 
Q 10.6875 0.296875 5.421875 2 
L 5.421875 11.28125 
Q 10.40625 8.6875 15.234375 7.390625 
Q 20.0625 6.109375 24.8125 6.109375 
Q 31.15625 6.109375 34.5625 8.28125 
Q 37.984375 10.453125 37.984375 14.40625 
Q 37.984375 18.0625 35.515625 20.015625 
Q 33.0625 21.96875 24.703125 23.78125 
L 21.578125 24.515625 
Q 13.234375 26.265625 9.515625 29.90625 
Q 5.8125 33.546875 5.8125 39.890625 
Q 5.8125 47.609375 11.28125 51.796875 
Q 16.75 56 26.8125 56 
Q 31.78125 56 36.171875 55.265625 
Q 40.578125 54.546875 44.28125 53.078125 
z
" id="DejaVuSans-115"/>
     </defs>
     <g transform="translate(15.470312 187.672969)rotate(-90)scale(0.1 -0.1)">
      <use xlink:href="#DejaVuSans-84"/>
      <use x="60.818359" xlink:href="#DejaVuSans-111"/>
      <use x="122" xlink:href="#DejaVuSans-116"/>
      <use x="161.208984" xlink:href="#DejaVuSans-97"/>
      <use x="222.488281" xlink:href="#DejaVuSans-108"/>
      <use x="250.271484" xlink:href="#DejaVuSans-32"/>
      <use x="282.058594" xlink:href="#DejaVuSans-112"/>
      <use x="345.535156" xlink:href="#DejaVuSans-117"/>
      <use x="408.914062" xlink:href="#DejaVuSans-98"/>
      <use x="472.390625" xlink:href="#DejaVuSans-108"/>
      <use x="500.173828" xlink:href="#DejaVuSans-105"/>
      <use x="527.957031" xlink:href="#DejaVuSans-99"/>
      <use x="582.9375" xlink:href="#DejaVuSans-97"/>
      <use x="644.216797" xlink:href="#DejaVuSans-116"/>
      <use x="683.425781" xlink:href="#DejaVuSans-105"/>
      <use x="711.208984" xlink:href="#DejaVuSans-111"/>
      <use x="772.390625" xlink:href="#DejaVuSans-110"/>
      <use x="835.769531" xlink:href="#DejaVuSans-115"/>
     </g>
    </g>
   </g>
   <g id="line2d_13">
    <path clip-path="url(#p428be1d482)" d="M 54 242.116364 
L 107.425532 242.026267 
L 162.631915 237.881807 
L 203.591489 237.79171 
L 210.714894 237.701613 
L 212.495745 237.611516 
L 216.057447 237.341225 
L 217.838298 230.67405 
L 219.619149 230.493856 
L 221.4 230.403759 
L 223.180851 230.223565 
L 224.961702 229.502789 
L 226.742553 229.322596 
L 228.523404 228.691917 
L 230.304255 228.331529 
L 233.865957 228.151335 
L 235.646809 227.70085 
L 237.42766 227.160269 
L 239.208511 226.889978 
L 240.989362 225.989008 
L 242.770213 224.997941 
L 244.551064 224.727651 
L 246.331915 224.277166 
L 248.112766 224.006875 
L 249.893617 223.105905 
L 251.674468 221.844548 
L 253.455319 220.583191 
L 255.23617 219.592124 
L 258.797872 218.150573 
L 260.578723 216.979312 
L 262.359574 215.537761 
L 264.140426 213.465531 
L 265.921277 210.852719 
L 267.702128 209.140877 
L 269.482979 191.752164 
L 271.26383 190.130418 
L 273.044681 187.517607 
L 274.825532 185.265183 
L 276.606383 183.012759 
L 278.387234 181.300917 
L 280.168085 180.490044 
L 281.948936 179.679171 
L 283.729787 178.057426 
L 285.510638 176.075293 
L 287.291489 172.291221 
L 289.07234 167.786373 
L 290.853191 163.822107 
L 292.634043 161.749877 
L 294.414894 160.308325 
L 296.195745 156.61435 
L 297.976596 152.379793 
L 299.757447 149.046205 
L 301.538298 144.721551 
L 303.319149 138.144473 
L 305.1 135.982146 
L 306.880851 135.801952 
L 308.661702 130.666426 
L 310.442553 125.981384 
L 312.223404 120.395373 
L 314.004255 113.998488 
L 315.785106 106.160053 
L 317.565957 102.646272 
L 319.346809 101.114623 
L 321.12766 93.366285 
L 322.908511 83.365522 
L 324.689362 63.273901 
L 326.470213 56.967114 
L 328.251064 50.750423 
L 330.031915 49.489066 
L 333.593617 49.038581 
L 335.374468 48.858387 
L 340.717021 48.678193 
L 347.840426 48.588096 
L 349.621277 48.317806 
L 363.868085 48.227709 
L 378.114894 46.155479 
L 383.457447 46.065382 
L 406.608511 45.885188 
L 420.855319 45.5248 
L 433 45.417943 
" style="fill:none;stroke:#008000;stroke-linecap:square;stroke-width:1.5;"/>
    <defs>
     <path d="M 0 3 
L 0 -3 
" id="mce7e1195a3" style="stroke:#008000;"/>
    </defs>
    <g clip-path="url(#p428be1d482)">
     <use style="fill:#008000;stroke:#008000;" x="54" xlink:href="#mce7e1195a3" y="242.116364"/>
     <use style="fill:#008000;stroke:#008000;" x="107.425532" xlink:href="#mce7e1195a3" y="242.026267"/>
     <use style="fill:#008000;stroke:#008000;" x="162.631915" xlink:href="#mce7e1195a3" y="237.881807"/>
     <use style="fill:#008000;stroke:#008000;" x="203.591489" xlink:href="#mce7e1195a3" y="237.79171"/>
     <use style="fill:#008000;stroke:#008000;" x="210.714894" xlink:href="#mce7e1195a3" y="237.701613"/>
     <use style="fill:#008000;stroke:#008000;" x="212.495745" xlink:href="#mce7e1195a3" y="237.611516"/>
     <use style="fill:#008000;stroke:#008000;" x="216.057447" xlink:href="#mce7e1195a3" y="237.341225"/>
     <use style="fill:#008000;stroke:#008000;" x="217.838298" xlink:href="#mce7e1195a3" y="230.67405"/>
     <use style="fill:#008000;stroke:#008000;" x="219.619149" xlink:href="#mce7e1195a3" y="230.493856"/>
     <use style="fill:#008000;stroke:#008000;" x="221.4" xlink:href="#mce7e1195a3" y="230.403759"/>
     <use style="fill:#008000;stroke:#008000;" x="223.180851" xlink:href="#mce7e1195a3" y="230.223565"/>
     <use style="fill:#008000;stroke:#008000;" x="224.961702" xlink:href="#mce7e1195a3" y="229.502789"/>
     <use style="fill:#008000;stroke:#008000;" x="226.742553" xlink:href="#mce7e1195a3" y="229.322596"/>
     <use style="fill:#008000;stroke:#008000;" x="228.523404" xlink:href="#mce7e1195a3" y="228.691917"/>
     <use style="fill:#008000;stroke:#008000;" x="230.304255" xlink:href="#mce7e1195a3" y="228.331529"/>
     <use style="fill:#008000;stroke:#008000;" x="233.865957" xlink:href="#mce7e1195a3" y="228.151335"/>
     <use style="fill:#008000;stroke:#008000;" x="235.646809" xlink:href="#mce7e1195a3" y="227.70085"/>
     <use style="fill:#008000;stroke:#008000;" x="237.42766" xlink:href="#mce7e1195a3" y="227.160269"/>
     <use style="fill:#008000;stroke:#008000;" x="239.208511" xlink:href="#mce7e1195a3" y="226.889978"/>
     <use style="fill:#008000;stroke:#008000;" x="240.989362" xlink:href="#mce7e1195a3" y="225.989008"/>
     <use style="fill:#008000;stroke:#008000;" x="242.770213" xlink:href="#mce7e1195a3" y="224.997941"/>
     <use style="fill:#008000;stroke:#008000;" x="244.551064" xlink:href="#mce7e1195a3" y="224.727651"/>
     <use style="fill:#008000;stroke:#008000;" x="246.331915" xlink:href="#mce7e1195a3" y="224.277166"/>
     <use style="fill:#008000;stroke:#008000;" x="248.112766" xlink:href="#mce7e1195a3" y="224.006875"/>
     <use style="fill:#008000;stroke:#008000;" x="249.893617" xlink:href="#mce7e1195a3" y="223.105905"/>
     <use style="fill:#008000;stroke:#008000;" x="251.674468" xlink:href="#mce7e1195a3" y="221.844548"/>
     <use style="fill:#008000;stroke:#008000;" x="253.455319" xlink:href="#mce7e1195a3" y="220.583191"/>
     <use style="fill:#008000;stroke:#008000;" x="255.23617" xlink:href="#mce7e1195a3" y="219.592124"/>
     <use style="fill:#008000;stroke:#008000;" x="258.797872" xlink:href="#mce7e1195a3" y="218.150573"/>
     <use style="fill:#008000;stroke:#008000;" x="260.578723" xlink:href="#mce7e1195a3" y="216.979312"/>
     <use style="fill:#008000;stroke:#008000;" x="262.359574" xlink:href="#mce7e1195a3" y="215.537761"/>
     <use style="fill:#008000;stroke:#008000;" x="264.140426" xlink:href="#mce7e1195a3" y="213.465531"/>
     <use style="fill:#008000;stroke:#008000;" x="265.921277" xlink:href="#mce7e1195a3" y="210.852719"/>
     <use style="fill:#008000;stroke:#008000;" x="267.702128" xlink:href="#mce7e1195a3" y="209.140877"/>
     <use style="fill:#008000;stroke:#008000;" x="269.482979" xlink:href="#mce7e1195a3" y="191.752164"/>
     <use style="fill:#008000;stroke:#008000;" x="271.26383" xlink:href="#mce7e1195a3" y="190.130418"/>
     <use style="fill:#008000;stroke:#008000;" x="273.044681" xlink:href="#mce7e1195a3" y="187.517607"/>
     <use style="fill:#008000;stroke:#008000;" x="274.825532" xlink:href="#mce7e1195a3" y="185.265183"/>
     <use style="fill:#008000;stroke:#008000;" x="276.606383" xlink:href="#mce7e1195a3" y="183.012759"/>
     <use style="fill:#008000;stroke:#008000;" x="278.387234" xlink:href="#mce7e1195a3" y="181.300917"/>
     <use style="fill:#008000;stroke:#008000;" x="280.168085" xlink:href="#mce7e1195a3" y="180.490044"/>
     <use style="fill:#008000;stroke:#008000;" x="281.948936" xlink:href="#mce7e1195a3" y="179.679171"/>
     <use style="fill:#008000;stroke:#008000;" x="283.729787" xlink:href="#mce7e1195a3" y="178.057426"/>
     <use style="fill:#008000;stroke:#008000;" x="285.510638" xlink:href="#mce7e1195a3" y="176.075293"/>
     <use style="fill:#008000;stroke:#008000;" x="287.291489" xlink:href="#mce7e1195a3" y="172.291221"/>
     <use style="fill:#008000;stroke:#008000;" x="289.07234" xlink:href="#mce7e1195a3" y="167.786373"/>
     <use style="fill:#008000;stroke:#008000;" x="290.853191" xlink:href="#mce7e1195a3" y="163.822107"/>
     <use style="fill:#008000;stroke:#008000;" x="292.634043" xlink:href="#mce7e1195a3" y="161.749877"/>
     <use style="fill:#008000;stroke:#008000;" x="294.414894" xlink:href="#mce7e1195a3" y="160.308325"/>
     <use style="fill:#008000;stroke:#008000;" x="296.195745" xlink:href="#mce7e1195a3" y="156.61435"/>
     <use style="fill:#008000;stroke:#008000;" x="297.976596" xlink:href="#mce7e1195a3" y="152.379793"/>
     <use style="fill:#008000;stroke:#008000;" x="299.757447" xlink:href="#mce7e1195a3" y="149.046205"/>
     <use style="fill:#008000;stroke:#008000;" x="301.538298" xlink:href="#mce7e1195a3" y="144.721551"/>
     <use style="fill:#008000;stroke:#008000;" x="303.319149" xlink:href="#mce7e1195a3" y="138.144473"/>
     <use style="fill:#008000;stroke:#008000;" x="305.1" xlink:href="#mce7e1195a3" y="135.982146"/>
     <use style="fill:#008000;stroke:#008000;" x="306.880851" xlink:href="#mce7e1195a3" y="135.801952"/>
     <use style="fill:#008000;stroke:#008000;" x="308.661702" xlink:href="#mce7e1195a3" y="130.666426"/>
     <use style="fill:#008000;stroke:#008000;" x="310.442553" xlink:href="#mce7e1195a3" y="125.981384"/>
     <use style="fill:#008000;stroke:#008000;" x="312.223404" xlink:href="#mce7e1195a3" y="120.395373"/>
     <use style="fill:#008000;stroke:#008000;" x="314.004255" xlink:href="#mce7e1195a3" y="113.998488"/>
     <use style="fill:#008000;stroke:#008000;" x="315.785106" xlink:href="#mce7e1195a3" y="106.160053"/>
     <use style="fill:#008000;stroke:#008000;" x="317.565957" xlink:href="#mce7e1195a3" y="102.646272"/>
     <use style="fill:#008000;stroke:#008000;" x="319.346809" xlink:href="#mce7e1195a3" y="101.114623"/>
     <use style="fill:#008000;stroke:#008000;" x="321.12766" xlink:href="#mce7e1195a3" y="93.366285"/>
     <use style="fill:#008000;stroke:#008000;" x="322.908511" xlink:href="#mce7e1195a3" y="83.365522"/>
     <use style="fill:#008000;stroke:#008000;" x="324.689362" xlink:href="#mce7e1195a3" y="63.273901"/>
     <use style="fill:#008000;stroke:#008000;" x="326.470213" xlink:href="#mce7e1195a3" y="56.967114"/>
     <use style="fill:#008000;stroke:#008000;" x="328.251064" xlink:href="#mce7e1195a3" y="50.750423"/>
     <use style="fill:#008000;stroke:#008000;" x="330.031915" xlink:href="#mce7e1195a3" y="49.489066"/>
     <use style="fill:#008000;stroke:#008000;" x="333.593617" xlink:href="#mce7e1195a3" y="49.038581"/>
     <use style="fill:#008000;stroke:#008000;" x="335.374468" xlink:href="#mce7e1195a3" y="48.858387"/>
     <use style="fill:#008000;stroke:#008000;" x="340.717021" xlink:href="#mce7e1195a3" y="48.678193"/>
     <use style="fill:#008000;stroke:#008000;" x="347.840426" xlink:href="#mce7e1195a3" y="48.588096"/>
     <use style="fill:#008000;stroke:#008000;" x="349.621277" xlink:href="#mce7e1195a3" y="48.317806"/>
     <use style="fill:#008000;stroke:#008000;" x="363.868085" xlink:href="#mce7e1195a3" y="48.227709"/>
     <use style="fill:#008000;stroke:#008000;" x="378.114894" xlink:href="#mce7e1195a3" y="46.155479"/>
     <use style="fill:#008000;stroke:#008000;" x="383.457447" xlink:href="#mce7e1195a3" y="46.065382"/>
     <use style="fill:#008000;stroke:#008000;" x="406.608511" xlink:href="#mce7e1195a3" y="45.885188"/>
     <use style="fill:#008000;stroke:#008000;" x="420.855319" xlink:href="#mce7e1195a3" y="45.5248"/>
     <use style="fill:#008000;stroke:#008000;" x="461.814894" xlink:href="#mce7e1195a3" y="45.164412"/>
     <use style="fill:#008000;stroke:#008000;" x="486.746809" xlink:href="#mce7e1195a3" y="45.074315"/>
     <use style="fill:#008000;stroke:#008000;" x="759.217021" xlink:href="#mce7e1195a3" y="44.443636"/>
    </g>
   </g>
   <g id="line2d_14">
    <path clip-path="url(#p428be1d482)" d="M 335.374468 252 
L 335.374468 34.56 
" style="fill:none;stroke:#ff0000;stroke-linecap:square;stroke-width:1.5;"/>
   </g>
   <g id="line2d_15">
    <path clip-path="url(#p428be1d482)" d="M 54 44.443636 
L 388.8 44.443636 
" style="fill:none;stroke:#0000ff;stroke-linecap:square;stroke-width:1.5;"/>
   </g>
   <g id="patch_3">
    <path d="M 54 252 
L 54 34.56 
" style="fill:none;stroke:#000000;stroke-linecap:square;stroke-linejoin:miter;stroke-width:0.8;"/>
   </g>
   <g id="patch_4">
    <path d="M 388.8 252 
L 388.8 34.56 
" style="fill:none;stroke:#000000;stroke-linecap:square;stroke-linejoin:miter;stroke-width:0.8;"/>
   </g>
   <g id="patch_5">
    <path d="M 54 252 
L 388.8 252 
" style="fill:none;stroke:#000000;stroke-linecap:square;stroke-linejoin:miter;stroke-width:0.8;"/>
   </g>
   <g id="patch_6">
    <path d="M 54 34.56 
L 388.8 34.56 
" style="fill:none;stroke:#000000;stroke-linecap:square;stroke-linejoin:miter;stroke-width:0.8;"/>
   </g>
   <g id="text_15">
    <!-- COVID-19 Total Publications -->
    <defs>
     <path d="M 64.40625 67.28125 
L 64.40625 56.890625 
Q 59.421875 61.53125 53.78125 63.8125 
Q 48.140625 66.109375 41.796875 66.109375 
Q 29.296875 66.109375 22.65625 58.46875 
Q 16.015625 50.828125 16.015625 36.375 
Q 16.015625 21.96875 22.65625 14.328125 
Q 29.296875 6.6875 41.796875 6.6875 
Q 48.140625 6.6875 53.78125 8.984375 
Q 59.421875 11.28125 64.40625 15.921875 
L 64.40625 5.609375 
Q 59.234375 2.09375 53.4375 0.328125 
Q 47.65625 -1.421875 41.21875 -1.421875 
Q 24.65625 -1.421875 15.125 8.703125 
Q 5.609375 18.84375 5.609375 36.375 
Q 5.609375 53.953125 15.125 64.078125 
Q 24.65625 74.21875 41.21875 74.21875 
Q 47.75 74.21875 53.53125 72.484375 
Q 59.328125 70.75 64.40625 67.28125 
z
" id="DejaVuSans-67"/>
     <path d="M 39.40625 66.21875 
Q 28.65625 66.21875 22.328125 58.203125 
Q 16.015625 50.203125 16.015625 36.375 
Q 16.015625 22.609375 22.328125 14.59375 
Q 28.65625 6.59375 39.40625 6.59375 
Q 50.140625 6.59375 56.421875 14.59375 
Q 62.703125 22.609375 62.703125 36.375 
Q 62.703125 50.203125 56.421875 58.203125 
Q 50.140625 66.21875 39.40625 66.21875 
z
M 39.40625 74.21875 
Q 54.734375 74.21875 63.90625 63.9375 
Q 73.09375 53.65625 73.09375 36.375 
Q 73.09375 19.140625 63.90625 8.859375 
Q 54.734375 -1.421875 39.40625 -1.421875 
Q 24.03125 -1.421875 14.8125 8.828125 
Q 5.609375 19.09375 5.609375 36.375 
Q 5.609375 53.65625 14.8125 63.9375 
Q 24.03125 74.21875 39.40625 74.21875 
z
" id="DejaVuSans-79"/>
     <path d="M 28.609375 0 
L 0.78125 72.90625 
L 11.078125 72.90625 
L 34.1875 11.53125 
L 57.328125 72.90625 
L 67.578125 72.90625 
L 39.796875 0 
z
" id="DejaVuSans-86"/>
     <path d="M 9.8125 72.90625 
L 19.671875 72.90625 
L 19.671875 0 
L 9.8125 0 
z
" id="DejaVuSans-73"/>
     <path d="M 19.671875 64.796875 
L 19.671875 37.40625 
L 32.078125 37.40625 
Q 38.96875 37.40625 42.71875 40.96875 
Q 46.484375 44.53125 46.484375 51.125 
Q 46.484375 57.671875 42.71875 61.234375 
Q 38.96875 64.796875 32.078125 64.796875 
z
M 9.8125 72.90625 
L 32.078125 72.90625 
Q 44.34375 72.90625 50.609375 67.359375 
Q 56.890625 61.8125 56.890625 51.125 
Q 56.890625 40.328125 50.609375 34.8125 
Q 44.34375 29.296875 32.078125 29.296875 
L 19.671875 29.296875 
L 19.671875 0 
L 9.8125 0 
z
" id="DejaVuSans-80"/>
    </defs>
    <g transform="translate(137.207812 28.56)scale(0.12 -0.12)">
     <use xlink:href="#DejaVuSans-67"/>
     <use x="69.824219" xlink:href="#DejaVuSans-79"/>
     <use x="148.519531" xlink:href="#DejaVuSans-86"/>
     <use x="216.927734" xlink:href="#DejaVuSans-73"/>
     <use x="246.419922" xlink:href="#DejaVuSans-68"/>
     <use x="323.421875" xlink:href="#DejaVuSans-45"/>
     <use x="359.505859" xlink:href="#DejaVuSans-49"/>
     <use x="423.128906" xlink:href="#DejaVuSans-57"/>
     <use x="486.751953" xlink:href="#DejaVuSans-32"/>
     <use x="518.539062" xlink:href="#DejaVuSans-84"/>
     <use x="579.357422" xlink:href="#DejaVuSans-111"/>
     <use x="640.539062" xlink:href="#DejaVuSans-116"/>
     <use x="679.748047" xlink:href="#DejaVuSans-97"/>
     <use x="741.027344" xlink:href="#DejaVuSans-108"/>
     <use x="768.810547" xlink:href="#DejaVuSans-32"/>
     <use x="800.597656" xlink:href="#DejaVuSans-80"/>
     <use x="860.884766" xlink:href="#DejaVuSans-117"/>
     <use x="924.263672" xlink:href="#DejaVuSans-98"/>
     <use x="987.740234" xlink:href="#DejaVuSans-108"/>
     <use x="1015.523438" xlink:href="#DejaVuSans-105"/>
     <use x="1043.306641" xlink:href="#DejaVuSans-99"/>
     <use x="1098.287109" xlink:href="#DejaVuSans-97"/>
     <use x="1159.566406" xlink:href="#DejaVuSans-116"/>
     <use x="1198.775391" xlink:href="#DejaVuSans-105"/>
     <use x="1226.558594" xlink:href="#DejaVuSans-111"/>
     <use x="1287.740234" xlink:href="#DejaVuSans-110"/>
     <use x="1351.119141" xlink:href="#DejaVuSans-115"/>
    </g>
   </g>
   <g id="legend_1">
    <g id="patch_7">
     <path d="M 61 159.458125 
L 151.115625 159.458125 
Q 153.115625 159.458125 153.115625 157.458125 
L 153.115625 129.101875 
Q 153.115625 127.101875 151.115625 127.101875 
L 61 127.101875 
Q 59 127.101875 59 129.101875 
L 59 157.458125 
Q 59 159.458125 61 159.458125 
z
" style="fill:#ffffff;opacity:0.8;stroke:#cccccc;stroke-linejoin:miter;"/>
    </g>
    <g id="line2d_16">
     <path d="M 63 135.200312 
L 83 135.200312 
" style="fill:none;stroke:#ff0000;stroke-linecap:square;stroke-width:1.5;"/>
    </g>
    <g id="line2d_17"/>
    <g id="text_16">
     <!-- 2020-04-07 -->
     <defs>
      <path d="M 8.203125 72.90625 
L 55.078125 72.90625 
L 55.078125 68.703125 
L 28.609375 0 
L 18.3125 0 
L 43.21875 64.59375 
L 8.203125 64.59375 
z
" id="DejaVuSans-55"/>
     </defs>
     <g transform="translate(91 138.700312)scale(0.1 -0.1)">
      <use xlink:href="#DejaVuSans-50"/>
      <use x="63.623047" xlink:href="#DejaVuSans-48"/>
      <use x="127.246094" xlink:href="#DejaVuSans-50"/>
      <use x="190.869141" xlink:href="#DejaVuSans-48"/>
      <use x="254.492188" xlink:href="#DejaVuSans-45"/>
      <use x="290.576172" xlink:href="#DejaVuSans-48"/>
      <use x="354.199219" xlink:href="#DejaVuSans-52"/>
      <use x="417.822266" xlink:href="#DejaVuSans-45"/>
      <use x="453.90625" xlink:href="#DejaVuSans-48"/>
      <use x="517.529297" xlink:href="#DejaVuSans-55"/>
     </g>
    </g>
    <g id="line2d_18">
     <path d="M 63 149.878437 
L 83 149.878437 
" style="fill:none;stroke:#0000ff;stroke-linecap:square;stroke-width:1.5;"/>
    </g>
    <g id="line2d_19"/>
    <g id="text_17">
     <!-- 2196 -->
     <defs>
      <path d="M 33.015625 40.375 
Q 26.375 40.375 22.484375 35.828125 
Q 18.609375 31.296875 18.609375 23.390625 
Q 18.609375 15.53125 22.484375 10.953125 
Q 26.375 6.390625 33.015625 6.390625 
Q 39.65625 6.390625 43.53125 10.953125 
Q 47.40625 15.53125 47.40625 23.390625 
Q 47.40625 31.296875 43.53125 35.828125 
Q 39.65625 40.375 33.015625 40.375 
z
M 52.59375 71.296875 
L 52.59375 62.3125 
Q 48.875 64.0625 45.09375 64.984375 
Q 41.3125 65.921875 37.59375 65.921875 
Q 27.828125 65.921875 22.671875 59.328125 
Q 17.53125 52.734375 16.796875 39.40625 
Q 19.671875 43.65625 24.015625 45.921875 
Q 28.375 48.1875 33.59375 48.1875 
Q 44.578125 48.1875 50.953125 41.515625 
Q 57.328125 34.859375 57.328125 23.390625 
Q 57.328125 12.15625 50.6875 5.359375 
Q 44.046875 -1.421875 33.015625 -1.421875 
Q 20.359375 -1.421875 13.671875 8.265625 
Q 6.984375 17.96875 6.984375 36.375 
Q 6.984375 53.65625 15.1875 63.9375 
Q 23.390625 74.21875 37.203125 74.21875 
Q 40.921875 74.21875 44.703125 73.484375 
Q 48.484375 72.75 52.59375 71.296875 
z
" id="DejaVuSans-54"/>
     </defs>
     <g transform="translate(91 153.378437)scale(0.1 -0.1)">
      <use xlink:href="#DejaVuSans-50"/>
      <use x="63.623047" xlink:href="#DejaVuSans-49"/>
      <use x="127.246094" xlink:href="#DejaVuSans-57"/>
      <use x="190.869141" xlink:href="#DejaVuSans-54"/>
     </g>
    </g>
   </g>
  </g>
 </g>
 <defs>
  <clipPath id="p428be1d482">
   <rect height="217.44" width="334.8" x="54" y="34.56"/>
  </clipPath>
 </defs>
</svg>
